G75*
%MOIN*%
%OFA0B0*%
%FSLAX25Y25*%
%IPPOS*%
%LPD*%
%AMOC8*
5,1,8,0,0,1.08239X$1,22.5*
%
%ADD10C,0.00500*%
%ADD11C,0.00400*%
D10*
X0101000Y0021300D02*
X0101003Y0021521D01*
X0101011Y0021742D01*
X0101024Y0021962D01*
X0101043Y0022182D01*
X0101068Y0022402D01*
X0101097Y0022621D01*
X0101133Y0022839D01*
X0101173Y0023056D01*
X0101219Y0023272D01*
X0101270Y0023487D01*
X0101326Y0023700D01*
X0101388Y0023913D01*
X0101454Y0024123D01*
X0101526Y0024332D01*
X0101603Y0024539D01*
X0101685Y0024744D01*
X0101772Y0024947D01*
X0101864Y0025148D01*
X0101961Y0025347D01*
X0102063Y0025543D01*
X0102169Y0025736D01*
X0102280Y0025927D01*
X0102396Y0026115D01*
X0102517Y0026300D01*
X0102642Y0026482D01*
X0102771Y0026661D01*
X0102905Y0026837D01*
X0103043Y0027010D01*
X0103185Y0027179D01*
X0103331Y0027344D01*
X0103482Y0027506D01*
X0103636Y0027664D01*
X0103794Y0027818D01*
X0103956Y0027969D01*
X0104121Y0028115D01*
X0104290Y0028257D01*
X0104463Y0028395D01*
X0104639Y0028529D01*
X0104818Y0028658D01*
X0105000Y0028783D01*
X0105185Y0028904D01*
X0105373Y0029020D01*
X0105564Y0029131D01*
X0105757Y0029237D01*
X0105953Y0029339D01*
X0106152Y0029436D01*
X0106353Y0029528D01*
X0106556Y0029615D01*
X0106761Y0029697D01*
X0106968Y0029774D01*
X0107177Y0029846D01*
X0107387Y0029912D01*
X0107600Y0029974D01*
X0107813Y0030030D01*
X0108028Y0030081D01*
X0108244Y0030127D01*
X0108461Y0030167D01*
X0108679Y0030203D01*
X0108898Y0030232D01*
X0109118Y0030257D01*
X0109338Y0030276D01*
X0109558Y0030289D01*
X0109779Y0030297D01*
X0110000Y0030300D01*
X0110221Y0030297D01*
X0110442Y0030289D01*
X0110662Y0030276D01*
X0110882Y0030257D01*
X0111102Y0030232D01*
X0111321Y0030203D01*
X0111539Y0030167D01*
X0111756Y0030127D01*
X0111972Y0030081D01*
X0112187Y0030030D01*
X0112400Y0029974D01*
X0112613Y0029912D01*
X0112823Y0029846D01*
X0113032Y0029774D01*
X0113239Y0029697D01*
X0113444Y0029615D01*
X0113647Y0029528D01*
X0113848Y0029436D01*
X0114047Y0029339D01*
X0114243Y0029237D01*
X0114436Y0029131D01*
X0114627Y0029020D01*
X0114815Y0028904D01*
X0115000Y0028783D01*
X0115182Y0028658D01*
X0115361Y0028529D01*
X0115537Y0028395D01*
X0115710Y0028257D01*
X0115879Y0028115D01*
X0116044Y0027969D01*
X0116206Y0027818D01*
X0116364Y0027664D01*
X0116518Y0027506D01*
X0116669Y0027344D01*
X0116815Y0027179D01*
X0116957Y0027010D01*
X0117095Y0026837D01*
X0117229Y0026661D01*
X0117358Y0026482D01*
X0117483Y0026300D01*
X0117604Y0026115D01*
X0117720Y0025927D01*
X0117831Y0025736D01*
X0117937Y0025543D01*
X0118039Y0025347D01*
X0118136Y0025148D01*
X0118228Y0024947D01*
X0118315Y0024744D01*
X0118397Y0024539D01*
X0118474Y0024332D01*
X0118546Y0024123D01*
X0118612Y0023913D01*
X0118674Y0023700D01*
X0118730Y0023487D01*
X0118781Y0023272D01*
X0118827Y0023056D01*
X0118867Y0022839D01*
X0118903Y0022621D01*
X0118932Y0022402D01*
X0118957Y0022182D01*
X0118976Y0021962D01*
X0118989Y0021742D01*
X0118997Y0021521D01*
X0119000Y0021300D01*
X0118997Y0021079D01*
X0118989Y0020858D01*
X0118976Y0020638D01*
X0118957Y0020418D01*
X0118932Y0020198D01*
X0118903Y0019979D01*
X0118867Y0019761D01*
X0118827Y0019544D01*
X0118781Y0019328D01*
X0118730Y0019113D01*
X0118674Y0018900D01*
X0118612Y0018687D01*
X0118546Y0018477D01*
X0118474Y0018268D01*
X0118397Y0018061D01*
X0118315Y0017856D01*
X0118228Y0017653D01*
X0118136Y0017452D01*
X0118039Y0017253D01*
X0117937Y0017057D01*
X0117831Y0016864D01*
X0117720Y0016673D01*
X0117604Y0016485D01*
X0117483Y0016300D01*
X0117358Y0016118D01*
X0117229Y0015939D01*
X0117095Y0015763D01*
X0116957Y0015590D01*
X0116815Y0015421D01*
X0116669Y0015256D01*
X0116518Y0015094D01*
X0116364Y0014936D01*
X0116206Y0014782D01*
X0116044Y0014631D01*
X0115879Y0014485D01*
X0115710Y0014343D01*
X0115537Y0014205D01*
X0115361Y0014071D01*
X0115182Y0013942D01*
X0115000Y0013817D01*
X0114815Y0013696D01*
X0114627Y0013580D01*
X0114436Y0013469D01*
X0114243Y0013363D01*
X0114047Y0013261D01*
X0113848Y0013164D01*
X0113647Y0013072D01*
X0113444Y0012985D01*
X0113239Y0012903D01*
X0113032Y0012826D01*
X0112823Y0012754D01*
X0112613Y0012688D01*
X0112400Y0012626D01*
X0112187Y0012570D01*
X0111972Y0012519D01*
X0111756Y0012473D01*
X0111539Y0012433D01*
X0111321Y0012397D01*
X0111102Y0012368D01*
X0110882Y0012343D01*
X0110662Y0012324D01*
X0110442Y0012311D01*
X0110221Y0012303D01*
X0110000Y0012300D01*
X0109779Y0012303D01*
X0109558Y0012311D01*
X0109338Y0012324D01*
X0109118Y0012343D01*
X0108898Y0012368D01*
X0108679Y0012397D01*
X0108461Y0012433D01*
X0108244Y0012473D01*
X0108028Y0012519D01*
X0107813Y0012570D01*
X0107600Y0012626D01*
X0107387Y0012688D01*
X0107177Y0012754D01*
X0106968Y0012826D01*
X0106761Y0012903D01*
X0106556Y0012985D01*
X0106353Y0013072D01*
X0106152Y0013164D01*
X0105953Y0013261D01*
X0105757Y0013363D01*
X0105564Y0013469D01*
X0105373Y0013580D01*
X0105185Y0013696D01*
X0105000Y0013817D01*
X0104818Y0013942D01*
X0104639Y0014071D01*
X0104463Y0014205D01*
X0104290Y0014343D01*
X0104121Y0014485D01*
X0103956Y0014631D01*
X0103794Y0014782D01*
X0103636Y0014936D01*
X0103482Y0015094D01*
X0103331Y0015256D01*
X0103185Y0015421D01*
X0103043Y0015590D01*
X0102905Y0015763D01*
X0102771Y0015939D01*
X0102642Y0016118D01*
X0102517Y0016300D01*
X0102396Y0016485D01*
X0102280Y0016673D01*
X0102169Y0016864D01*
X0102063Y0017057D01*
X0101961Y0017253D01*
X0101864Y0017452D01*
X0101772Y0017653D01*
X0101685Y0017856D01*
X0101603Y0018061D01*
X0101526Y0018268D01*
X0101454Y0018477D01*
X0101388Y0018687D01*
X0101326Y0018900D01*
X0101270Y0019113D01*
X0101219Y0019328D01*
X0101173Y0019544D01*
X0101133Y0019761D01*
X0101097Y0019979D01*
X0101068Y0020198D01*
X0101043Y0020418D01*
X0101024Y0020638D01*
X0101011Y0020858D01*
X0101003Y0021079D01*
X0101000Y0021300D01*
X0101000Y0041300D02*
X0101003Y0041521D01*
X0101011Y0041742D01*
X0101024Y0041962D01*
X0101043Y0042182D01*
X0101068Y0042402D01*
X0101097Y0042621D01*
X0101133Y0042839D01*
X0101173Y0043056D01*
X0101219Y0043272D01*
X0101270Y0043487D01*
X0101326Y0043700D01*
X0101388Y0043913D01*
X0101454Y0044123D01*
X0101526Y0044332D01*
X0101603Y0044539D01*
X0101685Y0044744D01*
X0101772Y0044947D01*
X0101864Y0045148D01*
X0101961Y0045347D01*
X0102063Y0045543D01*
X0102169Y0045736D01*
X0102280Y0045927D01*
X0102396Y0046115D01*
X0102517Y0046300D01*
X0102642Y0046482D01*
X0102771Y0046661D01*
X0102905Y0046837D01*
X0103043Y0047010D01*
X0103185Y0047179D01*
X0103331Y0047344D01*
X0103482Y0047506D01*
X0103636Y0047664D01*
X0103794Y0047818D01*
X0103956Y0047969D01*
X0104121Y0048115D01*
X0104290Y0048257D01*
X0104463Y0048395D01*
X0104639Y0048529D01*
X0104818Y0048658D01*
X0105000Y0048783D01*
X0105185Y0048904D01*
X0105373Y0049020D01*
X0105564Y0049131D01*
X0105757Y0049237D01*
X0105953Y0049339D01*
X0106152Y0049436D01*
X0106353Y0049528D01*
X0106556Y0049615D01*
X0106761Y0049697D01*
X0106968Y0049774D01*
X0107177Y0049846D01*
X0107387Y0049912D01*
X0107600Y0049974D01*
X0107813Y0050030D01*
X0108028Y0050081D01*
X0108244Y0050127D01*
X0108461Y0050167D01*
X0108679Y0050203D01*
X0108898Y0050232D01*
X0109118Y0050257D01*
X0109338Y0050276D01*
X0109558Y0050289D01*
X0109779Y0050297D01*
X0110000Y0050300D01*
X0110221Y0050297D01*
X0110442Y0050289D01*
X0110662Y0050276D01*
X0110882Y0050257D01*
X0111102Y0050232D01*
X0111321Y0050203D01*
X0111539Y0050167D01*
X0111756Y0050127D01*
X0111972Y0050081D01*
X0112187Y0050030D01*
X0112400Y0049974D01*
X0112613Y0049912D01*
X0112823Y0049846D01*
X0113032Y0049774D01*
X0113239Y0049697D01*
X0113444Y0049615D01*
X0113647Y0049528D01*
X0113848Y0049436D01*
X0114047Y0049339D01*
X0114243Y0049237D01*
X0114436Y0049131D01*
X0114627Y0049020D01*
X0114815Y0048904D01*
X0115000Y0048783D01*
X0115182Y0048658D01*
X0115361Y0048529D01*
X0115537Y0048395D01*
X0115710Y0048257D01*
X0115879Y0048115D01*
X0116044Y0047969D01*
X0116206Y0047818D01*
X0116364Y0047664D01*
X0116518Y0047506D01*
X0116669Y0047344D01*
X0116815Y0047179D01*
X0116957Y0047010D01*
X0117095Y0046837D01*
X0117229Y0046661D01*
X0117358Y0046482D01*
X0117483Y0046300D01*
X0117604Y0046115D01*
X0117720Y0045927D01*
X0117831Y0045736D01*
X0117937Y0045543D01*
X0118039Y0045347D01*
X0118136Y0045148D01*
X0118228Y0044947D01*
X0118315Y0044744D01*
X0118397Y0044539D01*
X0118474Y0044332D01*
X0118546Y0044123D01*
X0118612Y0043913D01*
X0118674Y0043700D01*
X0118730Y0043487D01*
X0118781Y0043272D01*
X0118827Y0043056D01*
X0118867Y0042839D01*
X0118903Y0042621D01*
X0118932Y0042402D01*
X0118957Y0042182D01*
X0118976Y0041962D01*
X0118989Y0041742D01*
X0118997Y0041521D01*
X0119000Y0041300D01*
X0118997Y0041079D01*
X0118989Y0040858D01*
X0118976Y0040638D01*
X0118957Y0040418D01*
X0118932Y0040198D01*
X0118903Y0039979D01*
X0118867Y0039761D01*
X0118827Y0039544D01*
X0118781Y0039328D01*
X0118730Y0039113D01*
X0118674Y0038900D01*
X0118612Y0038687D01*
X0118546Y0038477D01*
X0118474Y0038268D01*
X0118397Y0038061D01*
X0118315Y0037856D01*
X0118228Y0037653D01*
X0118136Y0037452D01*
X0118039Y0037253D01*
X0117937Y0037057D01*
X0117831Y0036864D01*
X0117720Y0036673D01*
X0117604Y0036485D01*
X0117483Y0036300D01*
X0117358Y0036118D01*
X0117229Y0035939D01*
X0117095Y0035763D01*
X0116957Y0035590D01*
X0116815Y0035421D01*
X0116669Y0035256D01*
X0116518Y0035094D01*
X0116364Y0034936D01*
X0116206Y0034782D01*
X0116044Y0034631D01*
X0115879Y0034485D01*
X0115710Y0034343D01*
X0115537Y0034205D01*
X0115361Y0034071D01*
X0115182Y0033942D01*
X0115000Y0033817D01*
X0114815Y0033696D01*
X0114627Y0033580D01*
X0114436Y0033469D01*
X0114243Y0033363D01*
X0114047Y0033261D01*
X0113848Y0033164D01*
X0113647Y0033072D01*
X0113444Y0032985D01*
X0113239Y0032903D01*
X0113032Y0032826D01*
X0112823Y0032754D01*
X0112613Y0032688D01*
X0112400Y0032626D01*
X0112187Y0032570D01*
X0111972Y0032519D01*
X0111756Y0032473D01*
X0111539Y0032433D01*
X0111321Y0032397D01*
X0111102Y0032368D01*
X0110882Y0032343D01*
X0110662Y0032324D01*
X0110442Y0032311D01*
X0110221Y0032303D01*
X0110000Y0032300D01*
X0109779Y0032303D01*
X0109558Y0032311D01*
X0109338Y0032324D01*
X0109118Y0032343D01*
X0108898Y0032368D01*
X0108679Y0032397D01*
X0108461Y0032433D01*
X0108244Y0032473D01*
X0108028Y0032519D01*
X0107813Y0032570D01*
X0107600Y0032626D01*
X0107387Y0032688D01*
X0107177Y0032754D01*
X0106968Y0032826D01*
X0106761Y0032903D01*
X0106556Y0032985D01*
X0106353Y0033072D01*
X0106152Y0033164D01*
X0105953Y0033261D01*
X0105757Y0033363D01*
X0105564Y0033469D01*
X0105373Y0033580D01*
X0105185Y0033696D01*
X0105000Y0033817D01*
X0104818Y0033942D01*
X0104639Y0034071D01*
X0104463Y0034205D01*
X0104290Y0034343D01*
X0104121Y0034485D01*
X0103956Y0034631D01*
X0103794Y0034782D01*
X0103636Y0034936D01*
X0103482Y0035094D01*
X0103331Y0035256D01*
X0103185Y0035421D01*
X0103043Y0035590D01*
X0102905Y0035763D01*
X0102771Y0035939D01*
X0102642Y0036118D01*
X0102517Y0036300D01*
X0102396Y0036485D01*
X0102280Y0036673D01*
X0102169Y0036864D01*
X0102063Y0037057D01*
X0101961Y0037253D01*
X0101864Y0037452D01*
X0101772Y0037653D01*
X0101685Y0037856D01*
X0101603Y0038061D01*
X0101526Y0038268D01*
X0101454Y0038477D01*
X0101388Y0038687D01*
X0101326Y0038900D01*
X0101270Y0039113D01*
X0101219Y0039328D01*
X0101173Y0039544D01*
X0101133Y0039761D01*
X0101097Y0039979D01*
X0101068Y0040198D01*
X0101043Y0040418D01*
X0101024Y0040638D01*
X0101011Y0040858D01*
X0101003Y0041079D01*
X0101000Y0041300D01*
X0101000Y0061300D02*
X0101003Y0061521D01*
X0101011Y0061742D01*
X0101024Y0061962D01*
X0101043Y0062182D01*
X0101068Y0062402D01*
X0101097Y0062621D01*
X0101133Y0062839D01*
X0101173Y0063056D01*
X0101219Y0063272D01*
X0101270Y0063487D01*
X0101326Y0063700D01*
X0101388Y0063913D01*
X0101454Y0064123D01*
X0101526Y0064332D01*
X0101603Y0064539D01*
X0101685Y0064744D01*
X0101772Y0064947D01*
X0101864Y0065148D01*
X0101961Y0065347D01*
X0102063Y0065543D01*
X0102169Y0065736D01*
X0102280Y0065927D01*
X0102396Y0066115D01*
X0102517Y0066300D01*
X0102642Y0066482D01*
X0102771Y0066661D01*
X0102905Y0066837D01*
X0103043Y0067010D01*
X0103185Y0067179D01*
X0103331Y0067344D01*
X0103482Y0067506D01*
X0103636Y0067664D01*
X0103794Y0067818D01*
X0103956Y0067969D01*
X0104121Y0068115D01*
X0104290Y0068257D01*
X0104463Y0068395D01*
X0104639Y0068529D01*
X0104818Y0068658D01*
X0105000Y0068783D01*
X0105185Y0068904D01*
X0105373Y0069020D01*
X0105564Y0069131D01*
X0105757Y0069237D01*
X0105953Y0069339D01*
X0106152Y0069436D01*
X0106353Y0069528D01*
X0106556Y0069615D01*
X0106761Y0069697D01*
X0106968Y0069774D01*
X0107177Y0069846D01*
X0107387Y0069912D01*
X0107600Y0069974D01*
X0107813Y0070030D01*
X0108028Y0070081D01*
X0108244Y0070127D01*
X0108461Y0070167D01*
X0108679Y0070203D01*
X0108898Y0070232D01*
X0109118Y0070257D01*
X0109338Y0070276D01*
X0109558Y0070289D01*
X0109779Y0070297D01*
X0110000Y0070300D01*
X0110221Y0070297D01*
X0110442Y0070289D01*
X0110662Y0070276D01*
X0110882Y0070257D01*
X0111102Y0070232D01*
X0111321Y0070203D01*
X0111539Y0070167D01*
X0111756Y0070127D01*
X0111972Y0070081D01*
X0112187Y0070030D01*
X0112400Y0069974D01*
X0112613Y0069912D01*
X0112823Y0069846D01*
X0113032Y0069774D01*
X0113239Y0069697D01*
X0113444Y0069615D01*
X0113647Y0069528D01*
X0113848Y0069436D01*
X0114047Y0069339D01*
X0114243Y0069237D01*
X0114436Y0069131D01*
X0114627Y0069020D01*
X0114815Y0068904D01*
X0115000Y0068783D01*
X0115182Y0068658D01*
X0115361Y0068529D01*
X0115537Y0068395D01*
X0115710Y0068257D01*
X0115879Y0068115D01*
X0116044Y0067969D01*
X0116206Y0067818D01*
X0116364Y0067664D01*
X0116518Y0067506D01*
X0116669Y0067344D01*
X0116815Y0067179D01*
X0116957Y0067010D01*
X0117095Y0066837D01*
X0117229Y0066661D01*
X0117358Y0066482D01*
X0117483Y0066300D01*
X0117604Y0066115D01*
X0117720Y0065927D01*
X0117831Y0065736D01*
X0117937Y0065543D01*
X0118039Y0065347D01*
X0118136Y0065148D01*
X0118228Y0064947D01*
X0118315Y0064744D01*
X0118397Y0064539D01*
X0118474Y0064332D01*
X0118546Y0064123D01*
X0118612Y0063913D01*
X0118674Y0063700D01*
X0118730Y0063487D01*
X0118781Y0063272D01*
X0118827Y0063056D01*
X0118867Y0062839D01*
X0118903Y0062621D01*
X0118932Y0062402D01*
X0118957Y0062182D01*
X0118976Y0061962D01*
X0118989Y0061742D01*
X0118997Y0061521D01*
X0119000Y0061300D01*
X0118997Y0061079D01*
X0118989Y0060858D01*
X0118976Y0060638D01*
X0118957Y0060418D01*
X0118932Y0060198D01*
X0118903Y0059979D01*
X0118867Y0059761D01*
X0118827Y0059544D01*
X0118781Y0059328D01*
X0118730Y0059113D01*
X0118674Y0058900D01*
X0118612Y0058687D01*
X0118546Y0058477D01*
X0118474Y0058268D01*
X0118397Y0058061D01*
X0118315Y0057856D01*
X0118228Y0057653D01*
X0118136Y0057452D01*
X0118039Y0057253D01*
X0117937Y0057057D01*
X0117831Y0056864D01*
X0117720Y0056673D01*
X0117604Y0056485D01*
X0117483Y0056300D01*
X0117358Y0056118D01*
X0117229Y0055939D01*
X0117095Y0055763D01*
X0116957Y0055590D01*
X0116815Y0055421D01*
X0116669Y0055256D01*
X0116518Y0055094D01*
X0116364Y0054936D01*
X0116206Y0054782D01*
X0116044Y0054631D01*
X0115879Y0054485D01*
X0115710Y0054343D01*
X0115537Y0054205D01*
X0115361Y0054071D01*
X0115182Y0053942D01*
X0115000Y0053817D01*
X0114815Y0053696D01*
X0114627Y0053580D01*
X0114436Y0053469D01*
X0114243Y0053363D01*
X0114047Y0053261D01*
X0113848Y0053164D01*
X0113647Y0053072D01*
X0113444Y0052985D01*
X0113239Y0052903D01*
X0113032Y0052826D01*
X0112823Y0052754D01*
X0112613Y0052688D01*
X0112400Y0052626D01*
X0112187Y0052570D01*
X0111972Y0052519D01*
X0111756Y0052473D01*
X0111539Y0052433D01*
X0111321Y0052397D01*
X0111102Y0052368D01*
X0110882Y0052343D01*
X0110662Y0052324D01*
X0110442Y0052311D01*
X0110221Y0052303D01*
X0110000Y0052300D01*
X0109779Y0052303D01*
X0109558Y0052311D01*
X0109338Y0052324D01*
X0109118Y0052343D01*
X0108898Y0052368D01*
X0108679Y0052397D01*
X0108461Y0052433D01*
X0108244Y0052473D01*
X0108028Y0052519D01*
X0107813Y0052570D01*
X0107600Y0052626D01*
X0107387Y0052688D01*
X0107177Y0052754D01*
X0106968Y0052826D01*
X0106761Y0052903D01*
X0106556Y0052985D01*
X0106353Y0053072D01*
X0106152Y0053164D01*
X0105953Y0053261D01*
X0105757Y0053363D01*
X0105564Y0053469D01*
X0105373Y0053580D01*
X0105185Y0053696D01*
X0105000Y0053817D01*
X0104818Y0053942D01*
X0104639Y0054071D01*
X0104463Y0054205D01*
X0104290Y0054343D01*
X0104121Y0054485D01*
X0103956Y0054631D01*
X0103794Y0054782D01*
X0103636Y0054936D01*
X0103482Y0055094D01*
X0103331Y0055256D01*
X0103185Y0055421D01*
X0103043Y0055590D01*
X0102905Y0055763D01*
X0102771Y0055939D01*
X0102642Y0056118D01*
X0102517Y0056300D01*
X0102396Y0056485D01*
X0102280Y0056673D01*
X0102169Y0056864D01*
X0102063Y0057057D01*
X0101961Y0057253D01*
X0101864Y0057452D01*
X0101772Y0057653D01*
X0101685Y0057856D01*
X0101603Y0058061D01*
X0101526Y0058268D01*
X0101454Y0058477D01*
X0101388Y0058687D01*
X0101326Y0058900D01*
X0101270Y0059113D01*
X0101219Y0059328D01*
X0101173Y0059544D01*
X0101133Y0059761D01*
X0101097Y0059979D01*
X0101068Y0060198D01*
X0101043Y0060418D01*
X0101024Y0060638D01*
X0101011Y0060858D01*
X0101003Y0061079D01*
X0101000Y0061300D01*
X0101000Y0081300D02*
X0101003Y0081521D01*
X0101011Y0081742D01*
X0101024Y0081962D01*
X0101043Y0082182D01*
X0101068Y0082402D01*
X0101097Y0082621D01*
X0101133Y0082839D01*
X0101173Y0083056D01*
X0101219Y0083272D01*
X0101270Y0083487D01*
X0101326Y0083700D01*
X0101388Y0083913D01*
X0101454Y0084123D01*
X0101526Y0084332D01*
X0101603Y0084539D01*
X0101685Y0084744D01*
X0101772Y0084947D01*
X0101864Y0085148D01*
X0101961Y0085347D01*
X0102063Y0085543D01*
X0102169Y0085736D01*
X0102280Y0085927D01*
X0102396Y0086115D01*
X0102517Y0086300D01*
X0102642Y0086482D01*
X0102771Y0086661D01*
X0102905Y0086837D01*
X0103043Y0087010D01*
X0103185Y0087179D01*
X0103331Y0087344D01*
X0103482Y0087506D01*
X0103636Y0087664D01*
X0103794Y0087818D01*
X0103956Y0087969D01*
X0104121Y0088115D01*
X0104290Y0088257D01*
X0104463Y0088395D01*
X0104639Y0088529D01*
X0104818Y0088658D01*
X0105000Y0088783D01*
X0105185Y0088904D01*
X0105373Y0089020D01*
X0105564Y0089131D01*
X0105757Y0089237D01*
X0105953Y0089339D01*
X0106152Y0089436D01*
X0106353Y0089528D01*
X0106556Y0089615D01*
X0106761Y0089697D01*
X0106968Y0089774D01*
X0107177Y0089846D01*
X0107387Y0089912D01*
X0107600Y0089974D01*
X0107813Y0090030D01*
X0108028Y0090081D01*
X0108244Y0090127D01*
X0108461Y0090167D01*
X0108679Y0090203D01*
X0108898Y0090232D01*
X0109118Y0090257D01*
X0109338Y0090276D01*
X0109558Y0090289D01*
X0109779Y0090297D01*
X0110000Y0090300D01*
X0110221Y0090297D01*
X0110442Y0090289D01*
X0110662Y0090276D01*
X0110882Y0090257D01*
X0111102Y0090232D01*
X0111321Y0090203D01*
X0111539Y0090167D01*
X0111756Y0090127D01*
X0111972Y0090081D01*
X0112187Y0090030D01*
X0112400Y0089974D01*
X0112613Y0089912D01*
X0112823Y0089846D01*
X0113032Y0089774D01*
X0113239Y0089697D01*
X0113444Y0089615D01*
X0113647Y0089528D01*
X0113848Y0089436D01*
X0114047Y0089339D01*
X0114243Y0089237D01*
X0114436Y0089131D01*
X0114627Y0089020D01*
X0114815Y0088904D01*
X0115000Y0088783D01*
X0115182Y0088658D01*
X0115361Y0088529D01*
X0115537Y0088395D01*
X0115710Y0088257D01*
X0115879Y0088115D01*
X0116044Y0087969D01*
X0116206Y0087818D01*
X0116364Y0087664D01*
X0116518Y0087506D01*
X0116669Y0087344D01*
X0116815Y0087179D01*
X0116957Y0087010D01*
X0117095Y0086837D01*
X0117229Y0086661D01*
X0117358Y0086482D01*
X0117483Y0086300D01*
X0117604Y0086115D01*
X0117720Y0085927D01*
X0117831Y0085736D01*
X0117937Y0085543D01*
X0118039Y0085347D01*
X0118136Y0085148D01*
X0118228Y0084947D01*
X0118315Y0084744D01*
X0118397Y0084539D01*
X0118474Y0084332D01*
X0118546Y0084123D01*
X0118612Y0083913D01*
X0118674Y0083700D01*
X0118730Y0083487D01*
X0118781Y0083272D01*
X0118827Y0083056D01*
X0118867Y0082839D01*
X0118903Y0082621D01*
X0118932Y0082402D01*
X0118957Y0082182D01*
X0118976Y0081962D01*
X0118989Y0081742D01*
X0118997Y0081521D01*
X0119000Y0081300D01*
X0118997Y0081079D01*
X0118989Y0080858D01*
X0118976Y0080638D01*
X0118957Y0080418D01*
X0118932Y0080198D01*
X0118903Y0079979D01*
X0118867Y0079761D01*
X0118827Y0079544D01*
X0118781Y0079328D01*
X0118730Y0079113D01*
X0118674Y0078900D01*
X0118612Y0078687D01*
X0118546Y0078477D01*
X0118474Y0078268D01*
X0118397Y0078061D01*
X0118315Y0077856D01*
X0118228Y0077653D01*
X0118136Y0077452D01*
X0118039Y0077253D01*
X0117937Y0077057D01*
X0117831Y0076864D01*
X0117720Y0076673D01*
X0117604Y0076485D01*
X0117483Y0076300D01*
X0117358Y0076118D01*
X0117229Y0075939D01*
X0117095Y0075763D01*
X0116957Y0075590D01*
X0116815Y0075421D01*
X0116669Y0075256D01*
X0116518Y0075094D01*
X0116364Y0074936D01*
X0116206Y0074782D01*
X0116044Y0074631D01*
X0115879Y0074485D01*
X0115710Y0074343D01*
X0115537Y0074205D01*
X0115361Y0074071D01*
X0115182Y0073942D01*
X0115000Y0073817D01*
X0114815Y0073696D01*
X0114627Y0073580D01*
X0114436Y0073469D01*
X0114243Y0073363D01*
X0114047Y0073261D01*
X0113848Y0073164D01*
X0113647Y0073072D01*
X0113444Y0072985D01*
X0113239Y0072903D01*
X0113032Y0072826D01*
X0112823Y0072754D01*
X0112613Y0072688D01*
X0112400Y0072626D01*
X0112187Y0072570D01*
X0111972Y0072519D01*
X0111756Y0072473D01*
X0111539Y0072433D01*
X0111321Y0072397D01*
X0111102Y0072368D01*
X0110882Y0072343D01*
X0110662Y0072324D01*
X0110442Y0072311D01*
X0110221Y0072303D01*
X0110000Y0072300D01*
X0109779Y0072303D01*
X0109558Y0072311D01*
X0109338Y0072324D01*
X0109118Y0072343D01*
X0108898Y0072368D01*
X0108679Y0072397D01*
X0108461Y0072433D01*
X0108244Y0072473D01*
X0108028Y0072519D01*
X0107813Y0072570D01*
X0107600Y0072626D01*
X0107387Y0072688D01*
X0107177Y0072754D01*
X0106968Y0072826D01*
X0106761Y0072903D01*
X0106556Y0072985D01*
X0106353Y0073072D01*
X0106152Y0073164D01*
X0105953Y0073261D01*
X0105757Y0073363D01*
X0105564Y0073469D01*
X0105373Y0073580D01*
X0105185Y0073696D01*
X0105000Y0073817D01*
X0104818Y0073942D01*
X0104639Y0074071D01*
X0104463Y0074205D01*
X0104290Y0074343D01*
X0104121Y0074485D01*
X0103956Y0074631D01*
X0103794Y0074782D01*
X0103636Y0074936D01*
X0103482Y0075094D01*
X0103331Y0075256D01*
X0103185Y0075421D01*
X0103043Y0075590D01*
X0102905Y0075763D01*
X0102771Y0075939D01*
X0102642Y0076118D01*
X0102517Y0076300D01*
X0102396Y0076485D01*
X0102280Y0076673D01*
X0102169Y0076864D01*
X0102063Y0077057D01*
X0101961Y0077253D01*
X0101864Y0077452D01*
X0101772Y0077653D01*
X0101685Y0077856D01*
X0101603Y0078061D01*
X0101526Y0078268D01*
X0101454Y0078477D01*
X0101388Y0078687D01*
X0101326Y0078900D01*
X0101270Y0079113D01*
X0101219Y0079328D01*
X0101173Y0079544D01*
X0101133Y0079761D01*
X0101097Y0079979D01*
X0101068Y0080198D01*
X0101043Y0080418D01*
X0101024Y0080638D01*
X0101011Y0080858D01*
X0101003Y0081079D01*
X0101000Y0081300D01*
D11*
X0120200Y0080733D02*
X0124804Y0080733D01*
X0123269Y0079198D01*
X0122502Y0077663D02*
X0122502Y0074594D01*
X0124037Y0076129D02*
X0120967Y0076129D01*
X0120200Y0079198D02*
X0120200Y0082267D01*
X0120200Y0083802D02*
X0123269Y0086871D01*
X0124037Y0086871D01*
X0124804Y0086104D01*
X0124804Y0084569D01*
X0124037Y0083802D01*
X0120200Y0083802D02*
X0120200Y0086871D01*
X0120967Y0064569D02*
X0120200Y0063802D01*
X0120200Y0062267D01*
X0120967Y0061500D01*
X0122502Y0061500D02*
X0123269Y0063035D01*
X0123269Y0063802D01*
X0122502Y0064569D01*
X0120967Y0064569D01*
X0122502Y0061500D02*
X0124804Y0061500D01*
X0124804Y0064569D01*
X0122502Y0059965D02*
X0122502Y0056896D01*
X0124037Y0058431D02*
X0120967Y0058431D01*
X0120967Y0044569D02*
X0120200Y0043802D01*
X0120200Y0042267D01*
X0120967Y0041500D01*
X0122502Y0041500D02*
X0123269Y0043035D01*
X0123269Y0043802D01*
X0122502Y0044569D01*
X0120967Y0044569D01*
X0122502Y0041500D02*
X0124804Y0041500D01*
X0124804Y0044569D01*
X0122502Y0039965D02*
X0122502Y0036896D01*
X0124037Y0022267D02*
X0120967Y0022267D01*
X0120200Y0021500D01*
X0120200Y0019965D01*
X0120967Y0019198D01*
X0124037Y0022267D01*
X0124804Y0021500D01*
X0124804Y0019965D01*
X0124037Y0019198D01*
X0120967Y0019198D01*
M02*
