%
M48
M72
T01C0.0120
T02C0.0236
T03C0.0256
T04C0.0630
%
T01
X4250Y505
X5750Y505
X6500Y505
X8000Y505
X3000Y4880
X5750Y6130
X5750Y6630
X6625Y7380
X5875Y8380
X6250Y8505
X5250Y7630
X3000Y8005
X3000Y8380
X3000Y8755
X3000Y9130
X8750Y8630
X8750Y7630
X8750Y5630
T02
X1701Y6508
X1701Y3752
T03
X2528Y4254
X2528Y6006
T04
X11000Y6130
X11000Y4130
X11000Y2130
X11000Y8130
M30
