G75*
%MOIN*%
%OFA0B0*%
%FSLAX25Y25*%
%IPPOS*%
%LPD*%
%AMOC8*
5,1,8,0,0,1.08239X$1,22.5*
%
%ADD10C,0.04455*%
%ADD11C,0.04059*%
%ADD12C,0.04003*%
%ADD13C,0.07433*%
%ADD14C,0.02926*%
%ADD15C,0.03223*%
%ADD16C,0.05224*%
%ADD17R,0.04043X0.12311*%
%ADD18C,0.02054*%
%ADD19C,0.04634*%
%ADD20C,0.15500*%
D10*
X0046477Y0027277D02*
X0046523Y0027277D01*
X0046477Y0027277D02*
X0046477Y0030323D01*
X0046523Y0030323D01*
X0046523Y0027277D01*
X0050273Y0019823D02*
X0050273Y0019777D01*
X0047227Y0019777D01*
X0047227Y0019823D01*
X0050273Y0019823D01*
X0057477Y0018323D02*
X0057477Y0018277D01*
X0057477Y0018323D02*
X0057523Y0018323D01*
X0057523Y0018277D01*
X0057477Y0018277D01*
X0064977Y0018277D02*
X0064977Y0018323D01*
X0065023Y0018323D01*
X0065023Y0018277D01*
X0064977Y0018277D01*
X0075273Y0019777D02*
X0075273Y0019823D01*
X0075273Y0019777D02*
X0072227Y0019777D01*
X0072227Y0019823D01*
X0075273Y0019823D01*
X0061227Y0009323D02*
X0061227Y0009277D01*
X0061227Y0009323D02*
X0061273Y0009323D01*
X0061273Y0009277D01*
X0061227Y0009277D01*
X0050273Y0007823D02*
X0050273Y0007777D01*
X0047227Y0007777D01*
X0047227Y0007823D01*
X0050273Y0007823D01*
X0075273Y0007823D02*
X0075273Y0007777D01*
X0072227Y0007777D01*
X0072227Y0007823D01*
X0075273Y0007823D01*
X0058523Y0027277D02*
X0058477Y0027277D01*
X0058477Y0030323D01*
X0058523Y0030323D01*
X0058523Y0027277D01*
X0053523Y0065323D02*
X0053477Y0065323D01*
X0053523Y0065323D02*
X0053523Y0062277D01*
X0053477Y0062277D01*
X0053477Y0065323D01*
X0041523Y0065323D02*
X0041477Y0065323D01*
X0041523Y0065323D02*
X0041523Y0062277D01*
X0041477Y0062277D01*
X0041477Y0065323D01*
X0062727Y0077277D02*
X0062773Y0077277D01*
X0062727Y0077277D02*
X0062727Y0080323D01*
X0062773Y0080323D01*
X0062773Y0077277D01*
X0074727Y0077277D02*
X0074773Y0077277D01*
X0074727Y0077277D02*
X0074727Y0080323D01*
X0074773Y0080323D01*
X0074773Y0077277D01*
D11*
X0083721Y0075271D02*
X0083721Y0075229D01*
X0081279Y0075229D01*
X0081279Y0075271D01*
X0083721Y0075271D01*
X0083721Y0067371D02*
X0083721Y0067329D01*
X0081279Y0067329D01*
X0081279Y0067371D01*
X0083721Y0067371D01*
X0070029Y0060271D02*
X0070029Y0060229D01*
X0070029Y0060271D02*
X0072471Y0060271D01*
X0072471Y0060229D01*
X0070029Y0060229D01*
X0070029Y0052371D02*
X0070029Y0052329D01*
X0070029Y0052371D02*
X0072471Y0052371D01*
X0072471Y0052329D01*
X0070029Y0052329D01*
X0070029Y0046521D02*
X0070029Y0046479D01*
X0070029Y0046521D02*
X0072471Y0046521D01*
X0072471Y0046479D01*
X0070029Y0046479D01*
X0070029Y0038621D02*
X0070029Y0038579D01*
X0070029Y0038621D02*
X0072471Y0038621D01*
X0072471Y0038579D01*
X0070029Y0038579D01*
X0081279Y0047329D02*
X0081279Y0047371D01*
X0083721Y0047371D01*
X0083721Y0047329D01*
X0081279Y0047329D01*
X0081279Y0055229D02*
X0081279Y0055271D01*
X0083721Y0055271D01*
X0083721Y0055229D01*
X0081279Y0055229D01*
X0081279Y0087329D02*
X0081279Y0087371D01*
X0083721Y0087371D01*
X0083721Y0087329D01*
X0081279Y0087329D01*
X0072529Y0087329D02*
X0072529Y0087371D01*
X0074971Y0087371D01*
X0074971Y0087329D01*
X0072529Y0087329D01*
X0072529Y0095229D02*
X0072529Y0095271D01*
X0074971Y0095271D01*
X0074971Y0095229D01*
X0072529Y0095229D01*
X0081279Y0095229D02*
X0081279Y0095271D01*
X0083721Y0095271D01*
X0083721Y0095229D01*
X0081279Y0095229D01*
X0058721Y0095271D02*
X0058721Y0095229D01*
X0056279Y0095229D01*
X0056279Y0095271D01*
X0058721Y0095271D01*
X0058721Y0087371D02*
X0058721Y0087329D01*
X0056279Y0087329D01*
X0056279Y0087371D01*
X0058721Y0087371D01*
X0048721Y0087371D02*
X0048721Y0087329D01*
X0046279Y0087329D01*
X0046279Y0087371D01*
X0048721Y0087371D01*
X0048721Y0095229D02*
X0048721Y0095271D01*
X0048721Y0095229D02*
X0046279Y0095229D01*
X0046279Y0095271D01*
X0048721Y0095271D01*
X0038721Y0095271D02*
X0038721Y0095229D01*
X0036279Y0095229D01*
X0036279Y0095271D01*
X0038721Y0095271D01*
X0038721Y0087371D02*
X0038721Y0087329D01*
X0036279Y0087329D01*
X0036279Y0087371D01*
X0038721Y0087371D01*
D12*
X0062529Y0068681D02*
X0062569Y0068681D01*
X0062529Y0068681D02*
X0062529Y0068919D01*
X0062569Y0068919D01*
X0062569Y0068681D01*
X0074931Y0068681D02*
X0074971Y0068681D01*
X0074931Y0068681D02*
X0074931Y0068919D01*
X0074971Y0068919D01*
X0074971Y0068681D01*
X0035119Y0048771D02*
X0035119Y0048731D01*
X0034881Y0048731D01*
X0034881Y0048771D01*
X0035119Y0048771D01*
X0035119Y0036369D02*
X0035119Y0036329D01*
X0034881Y0036329D01*
X0034881Y0036369D01*
X0035119Y0036369D01*
D13*
X0023424Y0073543D02*
X0016576Y0073543D01*
X0023424Y0073543D02*
X0023424Y0073467D01*
X0016576Y0073467D01*
X0016576Y0073543D01*
X0016576Y0094133D02*
X0023424Y0094133D01*
X0023424Y0094057D01*
X0016576Y0094057D01*
X0016576Y0094133D01*
D14*
X0012424Y0014044D02*
X0030076Y0014044D01*
X0030076Y0007218D01*
X0012424Y0007218D01*
X0012424Y0014044D01*
X0012424Y0010143D02*
X0030076Y0010143D01*
X0030076Y0013068D02*
X0012424Y0013068D01*
X0012424Y0030382D02*
X0030076Y0030382D01*
X0030076Y0023556D01*
X0012424Y0023556D01*
X0012424Y0030382D01*
X0012424Y0026481D02*
X0030076Y0026481D01*
X0030076Y0029406D02*
X0012424Y0029406D01*
X0040918Y0037474D02*
X0040918Y0055126D01*
X0047744Y0055126D01*
X0047744Y0037474D01*
X0040918Y0037474D01*
X0040918Y0040399D02*
X0047744Y0040399D01*
X0047744Y0043324D02*
X0040918Y0043324D01*
X0040918Y0046249D02*
X0047744Y0046249D01*
X0047744Y0049174D02*
X0040918Y0049174D01*
X0040918Y0052099D02*
X0047744Y0052099D01*
X0047744Y0055024D02*
X0040918Y0055024D01*
X0057256Y0055126D02*
X0057256Y0037474D01*
X0057256Y0055126D02*
X0064082Y0055126D01*
X0064082Y0037474D01*
X0057256Y0037474D01*
X0057256Y0040399D02*
X0064082Y0040399D01*
X0064082Y0043324D02*
X0057256Y0043324D01*
X0057256Y0046249D02*
X0064082Y0046249D01*
X0064082Y0049174D02*
X0057256Y0049174D01*
X0057256Y0052099D02*
X0064082Y0052099D01*
X0064082Y0055024D02*
X0057256Y0055024D01*
D15*
X0057831Y0072543D02*
X0057831Y0072577D01*
X0057831Y0072543D02*
X0056617Y0072543D01*
X0056617Y0072577D01*
X0057831Y0072577D01*
X0057831Y0076283D02*
X0057831Y0076317D01*
X0057831Y0076283D02*
X0056617Y0076283D01*
X0056617Y0076317D01*
X0057831Y0076317D01*
X0057831Y0080023D02*
X0057831Y0080057D01*
X0057831Y0080023D02*
X0056617Y0080023D01*
X0056617Y0080057D01*
X0057831Y0080057D01*
X0048383Y0080057D02*
X0048383Y0080023D01*
X0047169Y0080023D01*
X0047169Y0080057D01*
X0048383Y0080057D01*
X0048383Y0072577D02*
X0048383Y0072543D01*
X0047169Y0072543D01*
X0047169Y0072577D01*
X0048383Y0072577D01*
D16*
X0019370Y0065080D02*
X0014646Y0065080D01*
X0014646Y0037520D02*
X0019370Y0037520D01*
D17*
X0017008Y0051300D03*
D18*
X0021525Y0051290D02*
X0024695Y0051290D01*
X0021525Y0051290D02*
X0021525Y0051310D01*
X0024695Y0051310D01*
X0024695Y0051290D01*
X0024695Y0048731D02*
X0021525Y0048731D01*
X0021525Y0048751D01*
X0024695Y0048751D01*
X0024695Y0048731D01*
X0024695Y0046172D02*
X0021525Y0046172D01*
X0021525Y0046192D01*
X0024695Y0046192D01*
X0024695Y0046172D01*
X0024695Y0053849D02*
X0021525Y0053849D01*
X0021525Y0053869D01*
X0024695Y0053869D01*
X0024695Y0053849D01*
X0024695Y0056408D02*
X0021525Y0056408D01*
X0021525Y0056428D01*
X0024695Y0056428D01*
X0024695Y0056408D01*
D19*
X0023209Y0060060D02*
X0027343Y0060060D01*
X0027343Y0042540D02*
X0023209Y0042540D01*
D20*
X0110000Y0041300D03*
X0110000Y0061300D03*
X0110000Y0081300D03*
X0110000Y0021300D03*
M02*
