G75*
%MOIN*%
%OFA0B0*%
%FSLAX25Y25*%
%IPPOS*%
%LPD*%
%AMOC8*
5,1,8,0,0,1.08239X$1,22.5*
%
%ADD10C,0.03960*%
%ADD11C,0.03564*%
%ADD12C,0.03508*%
%ADD13C,0.06938*%
%ADD14C,0.02776*%
%ADD15C,0.02728*%
%ADD16C,0.04724*%
%ADD17R,0.03543X0.11811*%
%ADD18C,0.01559*%
%ADD19C,0.04134*%
%ADD20C,0.15000*%
%ADD21C,0.03000*%
%ADD22C,0.03200*%
%ADD23C,0.01000*%
%ADD24C,0.02200*%
%ADD25C,0.00600*%
%ADD26C,0.03500*%
%ADD27C,0.05600*%
%ADD28C,0.04000*%
%ADD29C,0.01600*%
D10*
X0046480Y0027280D02*
X0046520Y0027280D01*
X0046480Y0027280D02*
X0046480Y0030320D01*
X0046520Y0030320D01*
X0046520Y0027280D01*
X0050270Y0019820D02*
X0050270Y0019780D01*
X0047230Y0019780D01*
X0047230Y0019820D01*
X0050270Y0019820D01*
X0057480Y0018320D02*
X0057480Y0018280D01*
X0057480Y0018320D02*
X0057520Y0018320D01*
X0057520Y0018280D01*
X0057480Y0018280D01*
X0064980Y0018280D02*
X0064980Y0018320D01*
X0065020Y0018320D01*
X0065020Y0018280D01*
X0064980Y0018280D01*
X0075270Y0019780D02*
X0075270Y0019820D01*
X0075270Y0019780D02*
X0072230Y0019780D01*
X0072230Y0019820D01*
X0075270Y0019820D01*
X0061230Y0009320D02*
X0061230Y0009280D01*
X0061230Y0009320D02*
X0061270Y0009320D01*
X0061270Y0009280D01*
X0061230Y0009280D01*
X0050270Y0007820D02*
X0050270Y0007780D01*
X0047230Y0007780D01*
X0047230Y0007820D01*
X0050270Y0007820D01*
X0075270Y0007820D02*
X0075270Y0007780D01*
X0072230Y0007780D01*
X0072230Y0007820D01*
X0075270Y0007820D01*
X0058520Y0027280D02*
X0058480Y0027280D01*
X0058480Y0030320D01*
X0058520Y0030320D01*
X0058520Y0027280D01*
X0053520Y0065320D02*
X0053480Y0065320D01*
X0053520Y0065320D02*
X0053520Y0062280D01*
X0053480Y0062280D01*
X0053480Y0065320D01*
X0041520Y0065320D02*
X0041480Y0065320D01*
X0041520Y0065320D02*
X0041520Y0062280D01*
X0041480Y0062280D01*
X0041480Y0065320D01*
X0062730Y0077280D02*
X0062770Y0077280D01*
X0062730Y0077280D02*
X0062730Y0080320D01*
X0062770Y0080320D01*
X0062770Y0077280D01*
X0074730Y0077280D02*
X0074770Y0077280D01*
X0074730Y0077280D02*
X0074730Y0080320D01*
X0074770Y0080320D01*
X0074770Y0077280D01*
D11*
X0083718Y0075268D02*
X0083718Y0075232D01*
X0081282Y0075232D01*
X0081282Y0075268D01*
X0083718Y0075268D01*
X0083718Y0067368D02*
X0083718Y0067332D01*
X0081282Y0067332D01*
X0081282Y0067368D01*
X0083718Y0067368D01*
X0070032Y0060268D02*
X0070032Y0060232D01*
X0070032Y0060268D02*
X0072468Y0060268D01*
X0072468Y0060232D01*
X0070032Y0060232D01*
X0070032Y0052368D02*
X0070032Y0052332D01*
X0070032Y0052368D02*
X0072468Y0052368D01*
X0072468Y0052332D01*
X0070032Y0052332D01*
X0070032Y0046518D02*
X0070032Y0046482D01*
X0070032Y0046518D02*
X0072468Y0046518D01*
X0072468Y0046482D01*
X0070032Y0046482D01*
X0070032Y0038618D02*
X0070032Y0038582D01*
X0070032Y0038618D02*
X0072468Y0038618D01*
X0072468Y0038582D01*
X0070032Y0038582D01*
X0081282Y0047332D02*
X0081282Y0047368D01*
X0083718Y0047368D01*
X0083718Y0047332D01*
X0081282Y0047332D01*
X0081282Y0055232D02*
X0081282Y0055268D01*
X0083718Y0055268D01*
X0083718Y0055232D01*
X0081282Y0055232D01*
X0081282Y0087332D02*
X0081282Y0087368D01*
X0083718Y0087368D01*
X0083718Y0087332D01*
X0081282Y0087332D01*
X0072532Y0087332D02*
X0072532Y0087368D01*
X0074968Y0087368D01*
X0074968Y0087332D01*
X0072532Y0087332D01*
X0072532Y0095232D02*
X0072532Y0095268D01*
X0074968Y0095268D01*
X0074968Y0095232D01*
X0072532Y0095232D01*
X0081282Y0095232D02*
X0081282Y0095268D01*
X0083718Y0095268D01*
X0083718Y0095232D01*
X0081282Y0095232D01*
X0058718Y0095268D02*
X0058718Y0095232D01*
X0056282Y0095232D01*
X0056282Y0095268D01*
X0058718Y0095268D01*
X0058718Y0087368D02*
X0058718Y0087332D01*
X0056282Y0087332D01*
X0056282Y0087368D01*
X0058718Y0087368D01*
X0048718Y0087368D02*
X0048718Y0087332D01*
X0046282Y0087332D01*
X0046282Y0087368D01*
X0048718Y0087368D01*
X0048718Y0095232D02*
X0048718Y0095268D01*
X0048718Y0095232D02*
X0046282Y0095232D01*
X0046282Y0095268D01*
X0048718Y0095268D01*
X0038718Y0095268D02*
X0038718Y0095232D01*
X0036282Y0095232D01*
X0036282Y0095268D01*
X0038718Y0095268D01*
X0038718Y0087368D02*
X0038718Y0087332D01*
X0036282Y0087332D01*
X0036282Y0087368D01*
X0038718Y0087368D01*
D12*
X0062532Y0068684D02*
X0062566Y0068684D01*
X0062532Y0068684D02*
X0062532Y0068916D01*
X0062566Y0068916D01*
X0062566Y0068684D01*
X0074934Y0068684D02*
X0074968Y0068684D01*
X0074934Y0068684D02*
X0074934Y0068916D01*
X0074968Y0068916D01*
X0074968Y0068684D01*
X0035116Y0048768D02*
X0035116Y0048734D01*
X0034884Y0048734D01*
X0034884Y0048768D01*
X0035116Y0048768D01*
X0035116Y0036366D02*
X0035116Y0036332D01*
X0034884Y0036332D01*
X0034884Y0036366D01*
X0035116Y0036366D01*
D13*
X0023421Y0073540D02*
X0016579Y0073540D01*
X0023421Y0073540D02*
X0023421Y0073470D01*
X0016579Y0073470D01*
X0016579Y0073540D01*
X0016579Y0094130D02*
X0023421Y0094130D01*
X0023421Y0094060D01*
X0016579Y0094060D01*
X0016579Y0094130D01*
D14*
X0041093Y0054951D02*
X0041093Y0037649D01*
X0041093Y0054951D02*
X0047569Y0054951D01*
X0047569Y0037649D01*
X0041093Y0037649D01*
X0041093Y0040424D02*
X0047569Y0040424D01*
X0047569Y0043199D02*
X0041093Y0043199D01*
X0041093Y0045974D02*
X0047569Y0045974D01*
X0047569Y0048749D02*
X0041093Y0048749D01*
X0041093Y0051524D02*
X0047569Y0051524D01*
X0047569Y0054299D02*
X0041093Y0054299D01*
X0057431Y0054951D02*
X0057431Y0037649D01*
X0057431Y0054951D02*
X0063907Y0054951D01*
X0063907Y0037649D01*
X0057431Y0037649D01*
X0057431Y0040424D02*
X0063907Y0040424D01*
X0063907Y0043199D02*
X0057431Y0043199D01*
X0057431Y0045974D02*
X0063907Y0045974D01*
X0063907Y0048749D02*
X0057431Y0048749D01*
X0057431Y0051524D02*
X0063907Y0051524D01*
X0063907Y0054299D02*
X0057431Y0054299D01*
X0029901Y0030207D02*
X0012599Y0030207D01*
X0029901Y0030207D02*
X0029901Y0023731D01*
X0012599Y0023731D01*
X0012599Y0030207D01*
X0012599Y0026506D02*
X0029901Y0026506D01*
X0029901Y0029281D02*
X0012599Y0029281D01*
X0012599Y0013869D02*
X0029901Y0013869D01*
X0029901Y0007393D01*
X0012599Y0007393D01*
X0012599Y0013869D01*
X0012599Y0010168D02*
X0029901Y0010168D01*
X0029901Y0012943D02*
X0012599Y0012943D01*
D15*
X0048380Y0072546D02*
X0048380Y0072574D01*
X0048380Y0072546D02*
X0047172Y0072546D01*
X0047172Y0072574D01*
X0048380Y0072574D01*
X0057828Y0072574D02*
X0057828Y0072546D01*
X0056620Y0072546D01*
X0056620Y0072574D01*
X0057828Y0072574D01*
X0057828Y0076286D02*
X0057828Y0076314D01*
X0057828Y0076286D02*
X0056620Y0076286D01*
X0056620Y0076314D01*
X0057828Y0076314D01*
X0057828Y0080026D02*
X0057828Y0080054D01*
X0057828Y0080026D02*
X0056620Y0080026D01*
X0056620Y0080054D01*
X0057828Y0080054D01*
X0048380Y0080054D02*
X0048380Y0080026D01*
X0047172Y0080026D01*
X0047172Y0080054D01*
X0048380Y0080054D01*
D16*
X0019370Y0065080D02*
X0014646Y0065080D01*
X0014646Y0037520D02*
X0019370Y0037520D01*
D17*
X0017008Y0051300D03*
D18*
X0021527Y0051292D02*
X0024693Y0051292D01*
X0021527Y0051292D02*
X0021527Y0051308D01*
X0024693Y0051308D01*
X0024693Y0051292D01*
X0024693Y0048733D02*
X0021527Y0048733D01*
X0021527Y0048749D01*
X0024693Y0048749D01*
X0024693Y0048733D01*
X0024693Y0046174D02*
X0021527Y0046174D01*
X0021527Y0046190D01*
X0024693Y0046190D01*
X0024693Y0046174D01*
X0024693Y0053851D02*
X0021527Y0053851D01*
X0021527Y0053867D01*
X0024693Y0053867D01*
X0024693Y0053851D01*
X0024693Y0056410D02*
X0021527Y0056410D01*
X0021527Y0056426D01*
X0024693Y0056426D01*
X0024693Y0056410D01*
D19*
X0023209Y0060060D02*
X0027343Y0060060D01*
X0027343Y0042540D02*
X0023209Y0042540D01*
D20*
X0110000Y0041300D03*
X0110000Y0061300D03*
X0110000Y0081300D03*
X0110000Y0021300D03*
D21*
X0110000Y0041300D02*
X0105000Y0041300D01*
X0083500Y0019800D01*
X0073750Y0019800D01*
X0072250Y0018300D01*
X0065000Y0018300D01*
X0057500Y0018300D02*
X0050250Y0018300D01*
X0048750Y0019800D01*
X0039581Y0010631D01*
X0021250Y0010631D01*
X0027500Y0008800D01*
X0021250Y0026969D02*
X0040000Y0026969D01*
X0035000Y0026969D01*
X0035000Y0036349D01*
X0027500Y0028800D02*
X0021250Y0026969D01*
X0040000Y0026969D02*
X0046299Y0026969D01*
X0046299Y0028800D01*
X0046500Y0028800D01*
X0058500Y0028800D02*
X0058500Y0046300D01*
X0060669Y0046300D01*
X0062549Y0048180D01*
X0062549Y0068800D01*
X0062500Y0072550D01*
X0058789Y0072550D01*
X0058789Y0072560D01*
X0057224Y0072560D01*
X0057224Y0076300D02*
X0052500Y0076300D01*
X0052500Y0071300D01*
X0052500Y0063800D01*
X0053500Y0063800D01*
X0041500Y0066300D02*
X0041500Y0061300D01*
X0041500Y0066300D02*
X0041500Y0072595D01*
X0034045Y0080050D01*
X0030000Y0080050D01*
X0057224Y0076300D02*
X0060000Y0076300D01*
X0062750Y0076300D01*
X0062750Y0078800D01*
X0057500Y0087350D02*
X0057224Y0087350D01*
X0074750Y0078800D02*
X0074951Y0078599D01*
X0074951Y0081300D01*
X0110000Y0081300D01*
X0074951Y0078599D02*
X0074951Y0068800D01*
X0044331Y0046300D02*
X0041500Y0049131D01*
D22*
X0041500Y0061300D02*
X0041500Y0063800D01*
X0041500Y0066284D01*
X0058500Y0046300D02*
X0060669Y0046300D01*
D23*
X0071250Y0046500D02*
X0081650Y0046500D01*
X0082500Y0047350D01*
X0071250Y0052350D02*
X0080200Y0061300D01*
X0110000Y0061300D01*
X0082500Y0067350D02*
X0075400Y0060250D01*
X0071250Y0060250D01*
X0052500Y0076300D02*
X0052500Y0082550D01*
X0051250Y0083800D01*
X0040000Y0083800D01*
X0037500Y0086300D01*
X0037500Y0087350D01*
X0037500Y0095250D02*
X0038550Y0095250D01*
X0046450Y0087350D01*
X0047500Y0087350D01*
X0057224Y0087350D01*
X0057224Y0087074D02*
X0057500Y0087350D01*
X0057224Y0087074D02*
X0055000Y0087074D01*
X0055000Y0080040D01*
X0057224Y0080040D01*
X0047776Y0080040D02*
X0047776Y0072560D01*
X0067500Y0082550D02*
X0071250Y0078800D01*
X0074750Y0078800D01*
X0074750Y0086350D01*
X0073750Y0087350D01*
X0067500Y0090050D02*
X0067500Y0082550D01*
X0067500Y0090050D02*
X0062300Y0095250D01*
X0057500Y0095250D01*
X0047500Y0095250D01*
X0073750Y0095250D02*
X0082500Y0095250D01*
X0071250Y0038600D02*
X0071250Y0032550D01*
X0073750Y0030050D01*
X0073750Y0019800D01*
D24*
X0080000Y0005050D03*
X0065000Y0005050D03*
X0057500Y0005050D03*
X0042500Y0005050D03*
X0030000Y0048800D03*
X0057500Y0061300D03*
X0057500Y0066300D03*
X0066250Y0073800D03*
X0058750Y0083800D03*
X0062500Y0085050D03*
X0052500Y0076300D03*
X0030000Y0080050D03*
X0030000Y0083800D03*
X0030000Y0087550D03*
X0030000Y0091300D03*
X0087500Y0086300D03*
X0087500Y0076300D03*
X0087500Y0056300D03*
D25*
X0006800Y0099500D02*
X0006800Y0003100D01*
X0128200Y0003100D01*
X0128200Y0099500D01*
X0006800Y0099500D01*
X0006800Y0099456D02*
X0128200Y0099456D01*
X0128200Y0098857D02*
X0006800Y0098857D01*
X0006800Y0098259D02*
X0015130Y0098259D01*
X0015710Y0098499D02*
X0014104Y0097834D01*
X0012875Y0096605D01*
X0012210Y0094999D01*
X0012210Y0093191D01*
X0012875Y0091585D01*
X0014104Y0090356D01*
X0015710Y0089691D01*
X0024290Y0089691D01*
X0025765Y0090302D01*
X0026300Y0089767D01*
X0026300Y0079314D01*
X0026863Y0077954D01*
X0027904Y0076913D01*
X0029264Y0076350D01*
X0030736Y0076350D01*
X0032096Y0076913D01*
X0032833Y0077650D01*
X0033051Y0077650D01*
X0038600Y0072101D01*
X0038600Y0061707D01*
X0038850Y0061104D01*
X0038850Y0055944D01*
X0038805Y0055899D01*
X0038805Y0036701D01*
X0040145Y0035361D01*
X0048517Y0035361D01*
X0049857Y0036701D01*
X0049857Y0055899D01*
X0048517Y0057239D01*
X0044150Y0057239D01*
X0044150Y0061104D01*
X0044400Y0061707D01*
X0044400Y0069660D01*
X0048352Y0069660D01*
X0049418Y0070101D01*
X0050234Y0070917D01*
X0050433Y0071397D01*
X0050644Y0071608D01*
X0050644Y0071907D01*
X0050676Y0071983D01*
X0050676Y0073137D01*
X0050644Y0073213D01*
X0050644Y0073511D01*
X0050433Y0073723D01*
X0050234Y0074203D01*
X0049418Y0075018D01*
X0049176Y0075119D01*
X0049176Y0077762D01*
X0049318Y0077762D01*
X0050644Y0079089D01*
X0050644Y0080992D01*
X0049318Y0082318D01*
X0046233Y0082318D01*
X0044907Y0080992D01*
X0044907Y0079089D01*
X0046233Y0077762D01*
X0046376Y0077762D01*
X0046376Y0075460D01*
X0042030Y0075460D01*
X0036080Y0081409D01*
X0035405Y0082085D01*
X0034523Y0082450D01*
X0033700Y0082450D01*
X0033700Y0085649D01*
X0033888Y0085367D01*
X0034317Y0084938D01*
X0034822Y0084601D01*
X0035383Y0084368D01*
X0035978Y0084250D01*
X0037200Y0084250D01*
X0037200Y0087050D01*
X0037800Y0087050D01*
X0037800Y0087650D01*
X0037200Y0087650D01*
X0037200Y0090450D01*
X0035978Y0090450D01*
X0035383Y0090332D01*
X0034822Y0090099D01*
X0034317Y0089762D01*
X0033888Y0089333D01*
X0033700Y0089051D01*
X0033700Y0092036D01*
X0033137Y0093396D01*
X0032096Y0094437D01*
X0029301Y0097232D01*
X0027941Y0097795D01*
X0025934Y0097795D01*
X0025896Y0097834D01*
X0024290Y0098499D01*
X0015710Y0098499D01*
X0013931Y0097660D02*
X0006800Y0097660D01*
X0006800Y0097062D02*
X0013332Y0097062D01*
X0012817Y0096463D02*
X0006800Y0096463D01*
X0006800Y0095865D02*
X0012569Y0095865D01*
X0012321Y0095266D02*
X0006800Y0095266D01*
X0006800Y0094668D02*
X0012210Y0094668D01*
X0012210Y0094069D02*
X0006800Y0094069D01*
X0006800Y0093471D02*
X0012210Y0093471D01*
X0012342Y0092872D02*
X0006800Y0092872D01*
X0006800Y0092274D02*
X0012590Y0092274D01*
X0012838Y0091675D02*
X0006800Y0091675D01*
X0006800Y0091077D02*
X0013384Y0091077D01*
X0013983Y0090478D02*
X0006800Y0090478D01*
X0006800Y0089880D02*
X0015255Y0089880D01*
X0006800Y0089281D02*
X0026300Y0089281D01*
X0026300Y0088683D02*
X0006800Y0088683D01*
X0006800Y0088084D02*
X0026300Y0088084D01*
X0026300Y0087486D02*
X0006800Y0087486D01*
X0006800Y0086887D02*
X0026300Y0086887D01*
X0026300Y0086289D02*
X0006800Y0086289D01*
X0006800Y0085690D02*
X0026300Y0085690D01*
X0026300Y0085092D02*
X0006800Y0085092D01*
X0006800Y0084493D02*
X0026300Y0084493D01*
X0026300Y0083895D02*
X0006800Y0083895D01*
X0006800Y0083296D02*
X0026300Y0083296D01*
X0026300Y0082698D02*
X0006800Y0082698D01*
X0006800Y0082099D02*
X0026300Y0082099D01*
X0026300Y0081501D02*
X0006800Y0081501D01*
X0006800Y0080902D02*
X0026300Y0080902D01*
X0026300Y0080303D02*
X0006800Y0080303D01*
X0006800Y0079705D02*
X0026300Y0079705D01*
X0026386Y0079106D02*
X0006800Y0079106D01*
X0006800Y0078508D02*
X0026634Y0078508D01*
X0026908Y0077909D02*
X0006800Y0077909D01*
X0006800Y0077311D02*
X0014267Y0077311D01*
X0014104Y0077244D02*
X0012875Y0076015D01*
X0012210Y0074409D01*
X0012210Y0072601D01*
X0012875Y0070995D01*
X0014104Y0069766D01*
X0015710Y0069101D01*
X0024290Y0069101D01*
X0025896Y0069766D01*
X0027125Y0070995D01*
X0027460Y0071805D01*
X0032050Y0071805D01*
X0032050Y0058118D01*
X0030094Y0058118D01*
X0030326Y0058465D01*
X0030580Y0059078D01*
X0030709Y0059728D01*
X0030709Y0059760D01*
X0025576Y0059760D01*
X0025576Y0060360D01*
X0030709Y0060360D01*
X0030709Y0060391D01*
X0030580Y0061042D01*
X0030326Y0061655D01*
X0029958Y0062206D01*
X0029489Y0062675D01*
X0028937Y0063044D01*
X0028325Y0063297D01*
X0027674Y0063427D01*
X0025576Y0063427D01*
X0025576Y0060360D01*
X0024976Y0060360D01*
X0024976Y0063427D01*
X0022877Y0063427D01*
X0022629Y0063377D01*
X0022892Y0064011D01*
X0023032Y0064719D01*
X0023032Y0064789D01*
X0017298Y0064789D01*
X0017298Y0061417D01*
X0019731Y0061417D01*
X0020162Y0061503D01*
X0019971Y0061042D01*
X0019842Y0060391D01*
X0019842Y0060360D01*
X0024976Y0060360D01*
X0024976Y0059760D01*
X0019842Y0059760D01*
X0019842Y0059728D01*
X0019971Y0059078D01*
X0020225Y0058465D01*
X0020593Y0057914D01*
X0020617Y0057890D01*
X0020080Y0057353D01*
X0020080Y0057377D01*
X0019991Y0057707D01*
X0019820Y0058004D01*
X0019578Y0058246D01*
X0019281Y0058417D01*
X0018951Y0058505D01*
X0017308Y0058505D01*
X0017308Y0051600D01*
X0016708Y0051600D01*
X0016708Y0058505D01*
X0015065Y0058505D01*
X0014734Y0058417D01*
X0014438Y0058246D01*
X0014196Y0058004D01*
X0014025Y0057707D01*
X0013936Y0057377D01*
X0013936Y0051600D01*
X0016708Y0051600D01*
X0016708Y0051000D01*
X0017308Y0051000D01*
X0017308Y0044094D01*
X0018951Y0044094D01*
X0019281Y0044183D01*
X0019578Y0044354D01*
X0019820Y0044596D01*
X0019946Y0044815D01*
X0020251Y0044510D01*
X0020413Y0044416D01*
X0020225Y0044135D01*
X0019971Y0043522D01*
X0019842Y0042872D01*
X0019842Y0042840D01*
X0024976Y0042840D01*
X0024976Y0042240D01*
X0025576Y0042240D01*
X0025576Y0042840D01*
X0030709Y0042840D01*
X0030709Y0042872D01*
X0030580Y0043522D01*
X0030326Y0044135D01*
X0029958Y0044686D01*
X0029489Y0045155D01*
X0028937Y0045524D01*
X0028325Y0045778D01*
X0027674Y0045907D01*
X0026772Y0045907D01*
X0026772Y0046088D01*
X0023204Y0046088D01*
X0023204Y0046276D01*
X0026772Y0046276D01*
X0026772Y0046464D01*
X0026631Y0046992D01*
X0026357Y0047467D01*
X0026079Y0047744D01*
X0026372Y0048037D01*
X0026372Y0049445D01*
X0025796Y0050020D01*
X0026372Y0050596D01*
X0026372Y0052004D01*
X0025796Y0052580D01*
X0026372Y0053155D01*
X0026372Y0054563D01*
X0026217Y0054718D01*
X0034454Y0054718D01*
X0035450Y0055714D01*
X0035450Y0074209D01*
X0034454Y0075205D01*
X0027460Y0075205D01*
X0027125Y0076015D01*
X0025896Y0077244D01*
X0024290Y0077909D01*
X0015710Y0077909D01*
X0014104Y0077244D01*
X0013573Y0076712D02*
X0006800Y0076712D01*
X0006800Y0076114D02*
X0012975Y0076114D01*
X0012669Y0075515D02*
X0006800Y0075515D01*
X0006800Y0074917D02*
X0012421Y0074917D01*
X0012210Y0074318D02*
X0006800Y0074318D01*
X0006800Y0073720D02*
X0012210Y0073720D01*
X0012210Y0073121D02*
X0006800Y0073121D01*
X0006800Y0072523D02*
X0012242Y0072523D01*
X0012490Y0071924D02*
X0006800Y0071924D01*
X0006800Y0071326D02*
X0012738Y0071326D01*
X0013143Y0070727D02*
X0006800Y0070727D01*
X0006800Y0070129D02*
X0013741Y0070129D01*
X0014673Y0069530D02*
X0006800Y0069530D01*
X0006800Y0068932D02*
X0032050Y0068932D01*
X0032050Y0069530D02*
X0025327Y0069530D01*
X0026259Y0070129D02*
X0032050Y0070129D01*
X0032050Y0070727D02*
X0026857Y0070727D01*
X0027262Y0071326D02*
X0032050Y0071326D01*
X0035450Y0071326D02*
X0038600Y0071326D01*
X0038600Y0071924D02*
X0035450Y0071924D01*
X0035450Y0072523D02*
X0038178Y0072523D01*
X0037580Y0073121D02*
X0035450Y0073121D01*
X0035450Y0073720D02*
X0036981Y0073720D01*
X0036383Y0074318D02*
X0035340Y0074318D01*
X0035784Y0074917D02*
X0034742Y0074917D01*
X0035186Y0075515D02*
X0027331Y0075515D01*
X0027025Y0076114D02*
X0034587Y0076114D01*
X0033989Y0076712D02*
X0031611Y0076712D01*
X0032494Y0077311D02*
X0033390Y0077311D01*
X0036587Y0080902D02*
X0044907Y0080902D01*
X0044907Y0080303D02*
X0037186Y0080303D01*
X0037784Y0079705D02*
X0044907Y0079705D01*
X0044907Y0079106D02*
X0038383Y0079106D01*
X0038981Y0078508D02*
X0045488Y0078508D01*
X0046086Y0077909D02*
X0039580Y0077909D01*
X0040178Y0077311D02*
X0046376Y0077311D01*
X0046376Y0076712D02*
X0040777Y0076712D01*
X0041375Y0076114D02*
X0046376Y0076114D01*
X0046376Y0075515D02*
X0041974Y0075515D01*
X0038600Y0070727D02*
X0035450Y0070727D01*
X0035450Y0070129D02*
X0038600Y0070129D01*
X0038600Y0069530D02*
X0035450Y0069530D01*
X0035450Y0068932D02*
X0038600Y0068932D01*
X0038600Y0068333D02*
X0035450Y0068333D01*
X0035450Y0067735D02*
X0038600Y0067735D01*
X0038600Y0067136D02*
X0035450Y0067136D01*
X0035450Y0066538D02*
X0038600Y0066538D01*
X0038600Y0065939D02*
X0035450Y0065939D01*
X0035450Y0065341D02*
X0038600Y0065341D01*
X0038600Y0064742D02*
X0035450Y0064742D01*
X0035450Y0064144D02*
X0038600Y0064144D01*
X0038600Y0063545D02*
X0035450Y0063545D01*
X0035450Y0062947D02*
X0038600Y0062947D01*
X0038600Y0062348D02*
X0035450Y0062348D01*
X0035450Y0061750D02*
X0038600Y0061750D01*
X0038830Y0061151D02*
X0035450Y0061151D01*
X0035450Y0060553D02*
X0038850Y0060553D01*
X0038850Y0059954D02*
X0035450Y0059954D01*
X0035450Y0059356D02*
X0038850Y0059356D01*
X0038850Y0058757D02*
X0035450Y0058757D01*
X0035450Y0058159D02*
X0038850Y0058159D01*
X0038850Y0057560D02*
X0035450Y0057560D01*
X0035450Y0056962D02*
X0038850Y0056962D01*
X0038850Y0056363D02*
X0035450Y0056363D01*
X0035450Y0055765D02*
X0038805Y0055765D01*
X0038805Y0055166D02*
X0034902Y0055166D01*
X0034700Y0051822D02*
X0034583Y0051822D01*
X0033993Y0051705D01*
X0033437Y0051475D01*
X0032937Y0051141D01*
X0032512Y0050715D01*
X0032177Y0050215D01*
X0031947Y0049659D01*
X0031830Y0049069D01*
X0031830Y0049051D01*
X0034700Y0049051D01*
X0034700Y0051822D01*
X0034700Y0051575D02*
X0035300Y0051575D01*
X0035300Y0051822D02*
X0035300Y0049051D01*
X0034700Y0049051D01*
X0034700Y0048451D01*
X0031830Y0048451D01*
X0031830Y0048432D01*
X0031947Y0047842D01*
X0032177Y0047286D01*
X0032512Y0046786D01*
X0032937Y0046361D01*
X0033437Y0046027D01*
X0033993Y0045796D01*
X0034583Y0045679D01*
X0034700Y0045679D01*
X0034700Y0048451D01*
X0035300Y0048451D01*
X0035300Y0049051D01*
X0038170Y0049051D01*
X0038170Y0049069D01*
X0038053Y0049659D01*
X0037822Y0050215D01*
X0037488Y0050715D01*
X0037063Y0051141D01*
X0036563Y0051475D01*
X0036007Y0051705D01*
X0035417Y0051822D01*
X0035300Y0051822D01*
X0035300Y0050976D02*
X0034700Y0050976D01*
X0034700Y0050378D02*
X0035300Y0050378D01*
X0035300Y0049779D02*
X0034700Y0049779D01*
X0034700Y0049181D02*
X0035300Y0049181D01*
X0035300Y0048582D02*
X0038805Y0048582D01*
X0038805Y0047984D02*
X0038081Y0047984D01*
X0038053Y0047842D02*
X0038170Y0048432D01*
X0038170Y0048451D01*
X0035300Y0048451D01*
X0035300Y0045679D01*
X0035417Y0045679D01*
X0036007Y0045796D01*
X0036563Y0046027D01*
X0037063Y0046361D01*
X0037488Y0046786D01*
X0037822Y0047286D01*
X0038053Y0047842D01*
X0037863Y0047385D02*
X0038805Y0047385D01*
X0038805Y0046787D02*
X0037489Y0046787D01*
X0036805Y0046188D02*
X0038805Y0046188D01*
X0038805Y0045590D02*
X0028778Y0045590D01*
X0029653Y0044991D02*
X0038805Y0044991D01*
X0038805Y0044393D02*
X0030154Y0044393D01*
X0030467Y0043794D02*
X0038805Y0043794D01*
X0038805Y0043196D02*
X0030645Y0043196D01*
X0030709Y0042240D02*
X0025576Y0042240D01*
X0025576Y0039173D01*
X0027674Y0039173D01*
X0028325Y0039303D01*
X0028937Y0039556D01*
X0029489Y0039925D01*
X0029958Y0040394D01*
X0030326Y0040945D01*
X0030580Y0041558D01*
X0030709Y0042209D01*
X0030709Y0042240D01*
X0030668Y0041999D02*
X0038805Y0041999D01*
X0038805Y0042597D02*
X0025576Y0042597D01*
X0025576Y0041999D02*
X0024976Y0041999D01*
X0024976Y0042240D02*
X0024976Y0039173D01*
X0022877Y0039173D01*
X0022629Y0039223D01*
X0022892Y0038589D01*
X0023032Y0037881D01*
X0023032Y0037811D01*
X0017298Y0037811D01*
X0016717Y0037811D01*
X0016717Y0037230D01*
X0010983Y0037230D01*
X0010983Y0037160D01*
X0011124Y0036452D01*
X0011400Y0035786D01*
X0011801Y0035186D01*
X0012311Y0034676D01*
X0012911Y0034275D01*
X0013577Y0033999D01*
X0014285Y0033858D01*
X0016717Y0033858D01*
X0016717Y0037230D01*
X0017298Y0037230D01*
X0017298Y0033858D01*
X0019731Y0033858D01*
X0020438Y0033999D01*
X0021105Y0034275D01*
X0021705Y0034676D01*
X0022215Y0035186D01*
X0022615Y0035786D01*
X0022892Y0036452D01*
X0023032Y0037160D01*
X0023032Y0037230D01*
X0017298Y0037230D01*
X0017298Y0037811D01*
X0017298Y0041183D01*
X0019731Y0041183D01*
X0020162Y0041097D01*
X0019971Y0041558D01*
X0019842Y0042209D01*
X0019842Y0042240D01*
X0024976Y0042240D01*
X0024976Y0042597D02*
X0006800Y0042597D01*
X0006800Y0041999D02*
X0019883Y0041999D01*
X0020036Y0041400D02*
X0006800Y0041400D01*
X0006800Y0040802D02*
X0012998Y0040802D01*
X0012911Y0040766D02*
X0012311Y0040365D01*
X0011801Y0039855D01*
X0011400Y0039255D01*
X0011124Y0038589D01*
X0010983Y0037881D01*
X0010983Y0037811D01*
X0016717Y0037811D01*
X0016717Y0041183D01*
X0014285Y0041183D01*
X0013577Y0041042D01*
X0012911Y0040766D01*
X0012149Y0040203D02*
X0006800Y0040203D01*
X0006800Y0039605D02*
X0011634Y0039605D01*
X0011297Y0039006D02*
X0006800Y0039006D01*
X0006800Y0038408D02*
X0011088Y0038408D01*
X0010983Y0037211D02*
X0006800Y0037211D01*
X0006800Y0037809D02*
X0016717Y0037809D01*
X0017298Y0037809D02*
X0032609Y0037809D01*
X0032634Y0037870D02*
X0032230Y0036895D01*
X0032230Y0035804D01*
X0032600Y0034910D01*
X0032600Y0029369D01*
X0032189Y0029369D01*
X0032189Y0031155D01*
X0030849Y0032495D01*
X0011651Y0032495D01*
X0010311Y0031155D01*
X0010311Y0022783D01*
X0011651Y0021443D01*
X0030849Y0021443D01*
X0032189Y0022783D01*
X0032189Y0024569D01*
X0045498Y0024569D01*
X0045907Y0024400D01*
X0047093Y0024400D01*
X0048151Y0024838D01*
X0048962Y0025649D01*
X0049400Y0026707D01*
X0049400Y0030893D01*
X0048962Y0031951D01*
X0048151Y0032762D01*
X0047093Y0033200D01*
X0045907Y0033200D01*
X0044849Y0032762D01*
X0044038Y0031951D01*
X0043600Y0030893D01*
X0043600Y0029369D01*
X0037400Y0029369D01*
X0037400Y0034910D01*
X0037770Y0035804D01*
X0037770Y0036895D01*
X0037366Y0037870D01*
X0036619Y0038617D01*
X0035644Y0039021D01*
X0034356Y0039021D01*
X0033381Y0038617D01*
X0032634Y0037870D01*
X0032361Y0037211D02*
X0023032Y0037211D01*
X0022923Y0036612D02*
X0032230Y0036612D01*
X0032230Y0036014D02*
X0022710Y0036014D01*
X0022368Y0035415D02*
X0032391Y0035415D01*
X0032600Y0034817D02*
X0021845Y0034817D01*
X0020967Y0034218D02*
X0032600Y0034218D01*
X0032600Y0033620D02*
X0006800Y0033620D01*
X0006800Y0034218D02*
X0013048Y0034218D01*
X0012170Y0034817D02*
X0006800Y0034817D01*
X0006800Y0035415D02*
X0011648Y0035415D01*
X0011306Y0036014D02*
X0006800Y0036014D01*
X0006800Y0036612D02*
X0011092Y0036612D01*
X0006800Y0033021D02*
X0032600Y0033021D01*
X0032600Y0032423D02*
X0030922Y0032423D01*
X0031520Y0031824D02*
X0032600Y0031824D01*
X0032600Y0031226D02*
X0032119Y0031226D01*
X0032189Y0030627D02*
X0032600Y0030627D01*
X0032600Y0030029D02*
X0032189Y0030029D01*
X0032189Y0029430D02*
X0032600Y0029430D01*
X0037400Y0029430D02*
X0043600Y0029430D01*
X0043600Y0030029D02*
X0037400Y0030029D01*
X0037400Y0030627D02*
X0043600Y0030627D01*
X0043738Y0031226D02*
X0037400Y0031226D01*
X0037400Y0031824D02*
X0043986Y0031824D01*
X0044510Y0032423D02*
X0037400Y0032423D01*
X0037400Y0033021D02*
X0045475Y0033021D01*
X0047525Y0033021D02*
X0056100Y0033021D01*
X0056100Y0032423D02*
X0048490Y0032423D01*
X0049014Y0031824D02*
X0055986Y0031824D01*
X0056038Y0031951D02*
X0055600Y0030893D01*
X0055600Y0026707D01*
X0056038Y0025649D01*
X0056849Y0024838D01*
X0057907Y0024400D01*
X0059093Y0024400D01*
X0060151Y0024838D01*
X0060962Y0025649D01*
X0061400Y0026707D01*
X0061400Y0030893D01*
X0060962Y0031951D01*
X0060900Y0032013D01*
X0060900Y0035361D01*
X0064855Y0035361D01*
X0066195Y0036701D01*
X0066195Y0055899D01*
X0064949Y0057145D01*
X0064949Y0067500D01*
X0065221Y0068156D01*
X0065221Y0069444D01*
X0064932Y0070142D01*
X0064900Y0072566D01*
X0064900Y0073027D01*
X0064894Y0073042D01*
X0064894Y0073059D01*
X0064711Y0073483D01*
X0064535Y0073909D01*
X0064523Y0073921D01*
X0064517Y0073936D01*
X0064186Y0074258D01*
X0064145Y0074299D01*
X0064324Y0074373D01*
X0064861Y0074732D01*
X0065318Y0075189D01*
X0065677Y0075726D01*
X0065924Y0076323D01*
X0066050Y0076957D01*
X0066050Y0078500D01*
X0063050Y0078500D01*
X0063050Y0079100D01*
X0062450Y0079100D01*
X0062450Y0083600D01*
X0062407Y0083600D01*
X0061773Y0083474D01*
X0061176Y0083227D01*
X0060639Y0082868D01*
X0060182Y0082411D01*
X0059823Y0081874D01*
X0059644Y0081441D01*
X0058767Y0082318D01*
X0056400Y0082318D01*
X0056400Y0084650D01*
X0059251Y0084650D01*
X0060237Y0085058D01*
X0060992Y0085813D01*
X0061400Y0086798D01*
X0061400Y0087901D01*
X0060992Y0088887D01*
X0060237Y0089642D01*
X0059251Y0090050D01*
X0055748Y0090050D01*
X0054763Y0089642D01*
X0054008Y0088887D01*
X0053951Y0088750D01*
X0051049Y0088750D01*
X0050992Y0088887D01*
X0050237Y0089642D01*
X0049251Y0090050D01*
X0045748Y0090050D01*
X0045735Y0090045D01*
X0041307Y0094473D01*
X0041400Y0094698D01*
X0041400Y0095801D01*
X0040992Y0096787D01*
X0040237Y0097542D01*
X0039251Y0097950D01*
X0035748Y0097950D01*
X0034763Y0097542D01*
X0034008Y0096787D01*
X0033600Y0095801D01*
X0033600Y0094698D01*
X0034008Y0093713D01*
X0034763Y0092958D01*
X0035748Y0092550D01*
X0039251Y0092550D01*
X0039265Y0092555D01*
X0043693Y0088127D01*
X0043600Y0087901D01*
X0043600Y0086798D01*
X0044008Y0085813D01*
X0044763Y0085058D01*
X0045748Y0084650D01*
X0049251Y0084650D01*
X0050237Y0085058D01*
X0050992Y0085813D01*
X0051049Y0085950D01*
X0053600Y0085950D01*
X0053600Y0079460D01*
X0054420Y0078640D01*
X0054804Y0078640D01*
X0055005Y0078439D01*
X0054922Y0078383D01*
X0054551Y0078012D01*
X0054259Y0077576D01*
X0054058Y0077091D01*
X0053961Y0076600D01*
X0056924Y0076600D01*
X0056924Y0076000D01*
X0053961Y0076000D01*
X0054058Y0075509D01*
X0054259Y0075024D01*
X0054551Y0074588D01*
X0054922Y0074217D01*
X0055005Y0074161D01*
X0054356Y0073511D01*
X0054356Y0071608D01*
X0055682Y0070282D01*
X0056452Y0070282D01*
X0056747Y0070160D01*
X0058288Y0070160D01*
X0058312Y0070150D01*
X0060131Y0070150D01*
X0060132Y0070059D01*
X0059878Y0069444D01*
X0059878Y0068156D01*
X0060149Y0067500D01*
X0060149Y0057239D01*
X0056483Y0057239D01*
X0055143Y0055899D01*
X0055143Y0036701D01*
X0056100Y0035744D01*
X0056100Y0032013D01*
X0056038Y0031951D01*
X0055738Y0031226D02*
X0049262Y0031226D01*
X0049400Y0030627D02*
X0055600Y0030627D01*
X0055600Y0030029D02*
X0049400Y0030029D01*
X0049400Y0029430D02*
X0055600Y0029430D01*
X0055600Y0028832D02*
X0049400Y0028832D01*
X0049400Y0028233D02*
X0055600Y0028233D01*
X0055600Y0027634D02*
X0049400Y0027634D01*
X0049400Y0027036D02*
X0055600Y0027036D01*
X0055712Y0026437D02*
X0049288Y0026437D01*
X0049040Y0025839D02*
X0055960Y0025839D01*
X0056447Y0025240D02*
X0048553Y0025240D01*
X0047677Y0024642D02*
X0057323Y0024642D01*
X0059677Y0024642D02*
X0072350Y0024642D01*
X0072350Y0025240D02*
X0060553Y0025240D01*
X0061040Y0025839D02*
X0072350Y0025839D01*
X0072350Y0026437D02*
X0061288Y0026437D01*
X0061400Y0027036D02*
X0072350Y0027036D01*
X0072350Y0027634D02*
X0061400Y0027634D01*
X0061400Y0028233D02*
X0072350Y0028233D01*
X0072350Y0028832D02*
X0061400Y0028832D01*
X0061400Y0029430D02*
X0072350Y0029430D01*
X0072350Y0029470D02*
X0072350Y0022700D01*
X0071657Y0022700D01*
X0070599Y0022262D01*
X0069788Y0021451D01*
X0069477Y0020700D01*
X0066713Y0020700D01*
X0066651Y0020762D01*
X0065593Y0021200D01*
X0064407Y0021200D01*
X0063349Y0020762D01*
X0062538Y0019951D01*
X0062100Y0018893D01*
X0062100Y0017707D01*
X0062538Y0016649D01*
X0063349Y0015838D01*
X0064407Y0015400D01*
X0065593Y0015400D01*
X0066651Y0015838D01*
X0066713Y0015900D01*
X0072727Y0015900D01*
X0073609Y0016265D01*
X0074244Y0016900D01*
X0075843Y0016900D01*
X0076901Y0017338D01*
X0076963Y0017400D01*
X0083977Y0017400D01*
X0084859Y0017765D01*
X0085535Y0018441D01*
X0103257Y0036163D01*
X0105242Y0034179D01*
X0108329Y0032900D01*
X0111671Y0032900D01*
X0114758Y0034179D01*
X0117121Y0036542D01*
X0118400Y0039629D01*
X0118400Y0042971D01*
X0117121Y0046058D01*
X0114758Y0048421D01*
X0111671Y0049700D01*
X0108329Y0049700D01*
X0105242Y0048421D01*
X0102879Y0046058D01*
X0101600Y0042971D01*
X0101600Y0041294D01*
X0082506Y0022200D01*
X0076963Y0022200D01*
X0076901Y0022262D01*
X0075843Y0022700D01*
X0075150Y0022700D01*
X0075150Y0030630D01*
X0072650Y0033130D01*
X0072650Y0035900D01*
X0073001Y0035900D01*
X0073987Y0036308D01*
X0074742Y0037063D01*
X0075150Y0038048D01*
X0075150Y0039151D01*
X0074742Y0040137D01*
X0073987Y0040892D01*
X0073001Y0041300D01*
X0069498Y0041300D01*
X0068513Y0040892D01*
X0067758Y0040137D01*
X0067350Y0039151D01*
X0067350Y0038048D01*
X0067758Y0037063D01*
X0068513Y0036308D01*
X0069498Y0035900D01*
X0069850Y0035900D01*
X0069850Y0031970D01*
X0072350Y0029470D01*
X0071792Y0030029D02*
X0061400Y0030029D01*
X0061400Y0030627D02*
X0071193Y0030627D01*
X0070595Y0031226D02*
X0061262Y0031226D01*
X0061014Y0031824D02*
X0069996Y0031824D01*
X0069850Y0032423D02*
X0060900Y0032423D01*
X0060900Y0033021D02*
X0069850Y0033021D01*
X0069850Y0033620D02*
X0060900Y0033620D01*
X0060900Y0034218D02*
X0069850Y0034218D01*
X0069850Y0034817D02*
X0060900Y0034817D01*
X0064910Y0035415D02*
X0069850Y0035415D01*
X0069224Y0036014D02*
X0065508Y0036014D01*
X0066107Y0036612D02*
X0068209Y0036612D01*
X0067697Y0037211D02*
X0066195Y0037211D01*
X0066195Y0037809D02*
X0067449Y0037809D01*
X0067350Y0038408D02*
X0066195Y0038408D01*
X0066195Y0039006D02*
X0067350Y0039006D01*
X0067538Y0039605D02*
X0066195Y0039605D01*
X0066195Y0040203D02*
X0067824Y0040203D01*
X0068423Y0040802D02*
X0066195Y0040802D01*
X0066195Y0041400D02*
X0101600Y0041400D01*
X0101600Y0041999D02*
X0066195Y0041999D01*
X0066195Y0042597D02*
X0101600Y0042597D01*
X0101693Y0043196D02*
X0066195Y0043196D01*
X0066195Y0043794D02*
X0101941Y0043794D01*
X0102189Y0044393D02*
X0074172Y0044393D01*
X0073987Y0044208D02*
X0074742Y0044963D01*
X0074799Y0045100D01*
X0079721Y0045100D01*
X0079763Y0045058D01*
X0080748Y0044650D01*
X0084251Y0044650D01*
X0085237Y0045058D01*
X0085992Y0045813D01*
X0086400Y0046798D01*
X0086400Y0047901D01*
X0085992Y0048887D01*
X0085237Y0049642D01*
X0084251Y0050050D01*
X0080748Y0050050D01*
X0079763Y0049642D01*
X0079008Y0048887D01*
X0078600Y0047901D01*
X0078600Y0047900D01*
X0074799Y0047900D01*
X0074742Y0048037D01*
X0073987Y0048792D01*
X0073001Y0049200D01*
X0069498Y0049200D01*
X0068513Y0048792D01*
X0067758Y0048037D01*
X0067350Y0047051D01*
X0067350Y0045948D01*
X0067758Y0044963D01*
X0068513Y0044208D01*
X0069498Y0043800D01*
X0073001Y0043800D01*
X0073987Y0044208D01*
X0074754Y0044991D02*
X0079924Y0044991D01*
X0078634Y0047984D02*
X0074764Y0047984D01*
X0074197Y0048582D02*
X0078882Y0048582D01*
X0079302Y0049181D02*
X0073048Y0049181D01*
X0073001Y0049650D02*
X0073987Y0050058D01*
X0074742Y0050813D01*
X0075150Y0051798D01*
X0075150Y0052901D01*
X0074749Y0053869D01*
X0080780Y0059900D01*
X0101600Y0059900D01*
X0101600Y0059629D01*
X0102879Y0056542D01*
X0105242Y0054179D01*
X0108329Y0052900D01*
X0111671Y0052900D01*
X0114758Y0054179D01*
X0117121Y0056542D01*
X0118400Y0059629D01*
X0118400Y0062971D01*
X0117121Y0066058D01*
X0114758Y0068421D01*
X0111671Y0069700D01*
X0108329Y0069700D01*
X0105242Y0068421D01*
X0102879Y0066058D01*
X0101600Y0062971D01*
X0101600Y0062700D01*
X0079830Y0062700D01*
X0081780Y0064650D01*
X0084251Y0064650D01*
X0085237Y0065058D01*
X0085992Y0065813D01*
X0086400Y0066798D01*
X0086400Y0067901D01*
X0085992Y0068887D01*
X0085237Y0069642D01*
X0084251Y0070050D01*
X0080748Y0070050D01*
X0079763Y0069642D01*
X0079008Y0068887D01*
X0078600Y0067901D01*
X0078600Y0066798D01*
X0079001Y0065831D01*
X0074820Y0061650D01*
X0074799Y0061650D01*
X0074742Y0061787D01*
X0073987Y0062542D01*
X0073001Y0062950D01*
X0069498Y0062950D01*
X0068513Y0062542D01*
X0067758Y0061787D01*
X0067350Y0060801D01*
X0067350Y0059698D01*
X0067758Y0058713D01*
X0068513Y0057958D01*
X0069498Y0057550D01*
X0073001Y0057550D01*
X0073987Y0057958D01*
X0074742Y0058713D01*
X0074799Y0058850D01*
X0075770Y0058850D01*
X0071970Y0055050D01*
X0069498Y0055050D01*
X0068513Y0054642D01*
X0067758Y0053887D01*
X0067350Y0052901D01*
X0067350Y0051798D01*
X0067758Y0050813D01*
X0068513Y0050058D01*
X0069498Y0049650D01*
X0073001Y0049650D01*
X0073314Y0049779D02*
X0080095Y0049779D01*
X0080383Y0052268D02*
X0080978Y0052150D01*
X0082200Y0052150D01*
X0082200Y0054950D01*
X0082800Y0054950D01*
X0082800Y0055550D01*
X0082200Y0055550D01*
X0082200Y0058350D01*
X0080978Y0058350D01*
X0080383Y0058232D01*
X0079822Y0057999D01*
X0079317Y0057662D01*
X0078888Y0057233D01*
X0078551Y0056728D01*
X0078318Y0056167D01*
X0078200Y0055572D01*
X0078200Y0055550D01*
X0082200Y0055550D01*
X0082200Y0054950D01*
X0078200Y0054950D01*
X0078200Y0054928D01*
X0078318Y0054333D01*
X0078551Y0053772D01*
X0078888Y0053267D01*
X0079317Y0052838D01*
X0079822Y0052501D01*
X0080383Y0052268D01*
X0080860Y0052173D02*
X0075150Y0052173D01*
X0075150Y0052772D02*
X0079416Y0052772D01*
X0078819Y0053370D02*
X0074956Y0053370D01*
X0074849Y0053969D02*
X0078469Y0053969D01*
X0078272Y0054568D02*
X0075447Y0054568D01*
X0076046Y0055166D02*
X0082200Y0055166D01*
X0082200Y0054568D02*
X0082800Y0054568D01*
X0082800Y0054950D02*
X0082800Y0052150D01*
X0084022Y0052150D01*
X0084617Y0052268D01*
X0085178Y0052501D01*
X0085683Y0052838D01*
X0086112Y0053267D01*
X0086449Y0053772D01*
X0086682Y0054333D01*
X0086800Y0054928D01*
X0086800Y0054950D01*
X0082800Y0054950D01*
X0082800Y0055166D02*
X0104255Y0055166D01*
X0104853Y0054568D02*
X0086728Y0054568D01*
X0086531Y0053969D02*
X0105748Y0053969D01*
X0107193Y0053370D02*
X0086181Y0053370D01*
X0085584Y0052772D02*
X0128200Y0052772D01*
X0128200Y0053370D02*
X0112807Y0053370D01*
X0114252Y0053969D02*
X0128200Y0053969D01*
X0128200Y0054568D02*
X0115147Y0054568D01*
X0115745Y0055166D02*
X0128200Y0055166D01*
X0128200Y0055765D02*
X0116344Y0055765D01*
X0116942Y0056363D02*
X0128200Y0056363D01*
X0128200Y0056962D02*
X0117295Y0056962D01*
X0117543Y0057560D02*
X0128200Y0057560D01*
X0128200Y0058159D02*
X0117791Y0058159D01*
X0118039Y0058757D02*
X0128200Y0058757D01*
X0128200Y0059356D02*
X0118287Y0059356D01*
X0118400Y0059954D02*
X0128200Y0059954D01*
X0128200Y0060553D02*
X0118400Y0060553D01*
X0118400Y0061151D02*
X0128200Y0061151D01*
X0128200Y0061750D02*
X0118400Y0061750D01*
X0118400Y0062348D02*
X0128200Y0062348D01*
X0128200Y0062947D02*
X0118400Y0062947D01*
X0118162Y0063545D02*
X0128200Y0063545D01*
X0128200Y0064144D02*
X0117914Y0064144D01*
X0117666Y0064742D02*
X0128200Y0064742D01*
X0128200Y0065341D02*
X0117418Y0065341D01*
X0117170Y0065939D02*
X0128200Y0065939D01*
X0128200Y0066538D02*
X0116642Y0066538D01*
X0116043Y0067136D02*
X0128200Y0067136D01*
X0128200Y0067735D02*
X0115445Y0067735D01*
X0114846Y0068333D02*
X0128200Y0068333D01*
X0128200Y0068932D02*
X0113525Y0068932D01*
X0112081Y0069530D02*
X0128200Y0069530D01*
X0128200Y0070129D02*
X0077351Y0070129D01*
X0077351Y0070100D02*
X0077351Y0075985D01*
X0077650Y0076707D01*
X0077650Y0078900D01*
X0101902Y0078900D01*
X0102879Y0076542D01*
X0105242Y0074179D01*
X0108329Y0072900D01*
X0111671Y0072900D01*
X0114758Y0074179D01*
X0117121Y0076542D01*
X0118400Y0079629D01*
X0118400Y0082971D01*
X0117121Y0086058D01*
X0114758Y0088421D01*
X0111671Y0089700D01*
X0108329Y0089700D01*
X0105242Y0088421D01*
X0102879Y0086058D01*
X0101902Y0083700D01*
X0076150Y0083700D01*
X0076150Y0084919D01*
X0076487Y0085058D01*
X0077242Y0085813D01*
X0077650Y0086798D01*
X0077650Y0087901D01*
X0077242Y0088887D01*
X0076487Y0089642D01*
X0075501Y0090050D01*
X0071998Y0090050D01*
X0071013Y0089642D01*
X0070258Y0088887D01*
X0069850Y0087901D01*
X0069850Y0086798D01*
X0070258Y0085813D01*
X0071013Y0085058D01*
X0071998Y0084650D01*
X0073350Y0084650D01*
X0073350Y0083093D01*
X0072916Y0082659D01*
X0072859Y0082522D01*
X0072288Y0081951D01*
X0071850Y0080893D01*
X0071850Y0080200D01*
X0071830Y0080200D01*
X0068900Y0083130D01*
X0068900Y0090630D01*
X0062880Y0096650D01*
X0061049Y0096650D01*
X0060992Y0096787D01*
X0060237Y0097542D01*
X0059251Y0097950D01*
X0055748Y0097950D01*
X0054763Y0097542D01*
X0054008Y0096787D01*
X0053951Y0096650D01*
X0051049Y0096650D01*
X0050992Y0096787D01*
X0050237Y0097542D01*
X0049251Y0097950D01*
X0045748Y0097950D01*
X0044763Y0097542D01*
X0044008Y0096787D01*
X0043600Y0095801D01*
X0043600Y0094698D01*
X0044008Y0093713D01*
X0044763Y0092958D01*
X0045748Y0092550D01*
X0049251Y0092550D01*
X0050237Y0092958D01*
X0050992Y0093713D01*
X0051049Y0093850D01*
X0053951Y0093850D01*
X0054008Y0093713D01*
X0054763Y0092958D01*
X0055748Y0092550D01*
X0059251Y0092550D01*
X0060237Y0092958D01*
X0060992Y0093713D01*
X0061049Y0093850D01*
X0061720Y0093850D01*
X0066100Y0089470D01*
X0066100Y0081970D01*
X0069850Y0078220D01*
X0070670Y0077400D01*
X0071850Y0077400D01*
X0071850Y0076707D01*
X0072288Y0075649D01*
X0072551Y0075386D01*
X0072551Y0070100D01*
X0072279Y0069444D01*
X0072279Y0068156D01*
X0072683Y0067181D01*
X0073430Y0066434D01*
X0074405Y0066030D01*
X0075496Y0066030D01*
X0076472Y0066434D01*
X0077218Y0067181D01*
X0077622Y0068156D01*
X0077622Y0069444D01*
X0077351Y0070100D01*
X0077587Y0069530D02*
X0079651Y0069530D01*
X0079053Y0068932D02*
X0077622Y0068932D01*
X0077622Y0068333D02*
X0078779Y0068333D01*
X0078600Y0067735D02*
X0077448Y0067735D01*
X0077174Y0067136D02*
X0078600Y0067136D01*
X0078708Y0066538D02*
X0076576Y0066538D01*
X0077912Y0064742D02*
X0064949Y0064742D01*
X0064949Y0064144D02*
X0077314Y0064144D01*
X0076715Y0063545D02*
X0064949Y0063545D01*
X0064949Y0062947D02*
X0069490Y0062947D01*
X0068319Y0062348D02*
X0064949Y0062348D01*
X0064949Y0061750D02*
X0067743Y0061750D01*
X0067495Y0061151D02*
X0064949Y0061151D01*
X0064949Y0060553D02*
X0067350Y0060553D01*
X0067350Y0059954D02*
X0064949Y0059954D01*
X0064949Y0059356D02*
X0067492Y0059356D01*
X0067740Y0058757D02*
X0064949Y0058757D01*
X0064949Y0058159D02*
X0068312Y0058159D01*
X0069474Y0057560D02*
X0064949Y0057560D01*
X0065133Y0056962D02*
X0073882Y0056962D01*
X0074480Y0057560D02*
X0073026Y0057560D01*
X0074188Y0058159D02*
X0075079Y0058159D01*
X0074760Y0058757D02*
X0075677Y0058757D01*
X0077841Y0056962D02*
X0078707Y0056962D01*
X0078440Y0057560D02*
X0079215Y0057560D01*
X0079038Y0058159D02*
X0080207Y0058159D01*
X0079637Y0058757D02*
X0101961Y0058757D01*
X0101713Y0059356D02*
X0080235Y0059356D01*
X0082200Y0058159D02*
X0082800Y0058159D01*
X0082800Y0058350D02*
X0082800Y0055550D01*
X0086800Y0055550D01*
X0086800Y0055572D01*
X0086682Y0056167D01*
X0086449Y0056728D01*
X0086112Y0057233D01*
X0085683Y0057662D01*
X0085178Y0057999D01*
X0084617Y0058232D01*
X0084022Y0058350D01*
X0082800Y0058350D01*
X0082800Y0057560D02*
X0082200Y0057560D01*
X0082200Y0056962D02*
X0082800Y0056962D01*
X0082800Y0056363D02*
X0082200Y0056363D01*
X0082200Y0055765D02*
X0082800Y0055765D01*
X0082800Y0053969D02*
X0082200Y0053969D01*
X0082200Y0053370D02*
X0082800Y0053370D01*
X0082800Y0052772D02*
X0082200Y0052772D01*
X0082200Y0052173D02*
X0082800Y0052173D01*
X0084139Y0052173D02*
X0128200Y0052173D01*
X0128200Y0051575D02*
X0075057Y0051575D01*
X0074809Y0050976D02*
X0128200Y0050976D01*
X0128200Y0050378D02*
X0074307Y0050378D01*
X0069452Y0049181D02*
X0066195Y0049181D01*
X0066195Y0049779D02*
X0069186Y0049779D01*
X0068193Y0050378D02*
X0066195Y0050378D01*
X0066195Y0050976D02*
X0067691Y0050976D01*
X0067443Y0051575D02*
X0066195Y0051575D01*
X0066195Y0052173D02*
X0067350Y0052173D01*
X0067350Y0052772D02*
X0066195Y0052772D01*
X0066195Y0053370D02*
X0067544Y0053370D01*
X0067840Y0053969D02*
X0066195Y0053969D01*
X0066195Y0054568D02*
X0068439Y0054568D01*
X0066195Y0055166D02*
X0072086Y0055166D01*
X0072685Y0055765D02*
X0066195Y0055765D01*
X0065731Y0056363D02*
X0073283Y0056363D01*
X0076644Y0055765D02*
X0078238Y0055765D01*
X0078400Y0056363D02*
X0077243Y0056363D01*
X0074920Y0061750D02*
X0074757Y0061750D01*
X0074181Y0062348D02*
X0075518Y0062348D01*
X0076117Y0062947D02*
X0073010Y0062947D01*
X0073326Y0066538D02*
X0064949Y0066538D01*
X0064949Y0067136D02*
X0072727Y0067136D01*
X0072454Y0067735D02*
X0065046Y0067735D01*
X0065221Y0068333D02*
X0072279Y0068333D01*
X0072279Y0068932D02*
X0065221Y0068932D01*
X0065185Y0069530D02*
X0072315Y0069530D01*
X0072551Y0070129D02*
X0064937Y0070129D01*
X0064924Y0070727D02*
X0072551Y0070727D01*
X0072551Y0071326D02*
X0064916Y0071326D01*
X0064908Y0071924D02*
X0072551Y0071924D01*
X0072551Y0072523D02*
X0064901Y0072523D01*
X0064867Y0073121D02*
X0072551Y0073121D01*
X0072551Y0073720D02*
X0064613Y0073720D01*
X0064191Y0074318D02*
X0072551Y0074318D01*
X0072551Y0074917D02*
X0065046Y0074917D01*
X0065536Y0075515D02*
X0072422Y0075515D01*
X0072096Y0076114D02*
X0065837Y0076114D01*
X0066001Y0076712D02*
X0071850Y0076712D01*
X0071850Y0077311D02*
X0066050Y0077311D01*
X0066050Y0077909D02*
X0070161Y0077909D01*
X0069850Y0078220D02*
X0069850Y0078220D01*
X0069562Y0078508D02*
X0063050Y0078508D01*
X0063050Y0078500D02*
X0063050Y0074920D01*
X0062977Y0074950D01*
X0062961Y0074950D01*
X0062946Y0074956D01*
X0062484Y0074950D01*
X0062450Y0074950D01*
X0062450Y0078500D01*
X0063050Y0078500D01*
X0063050Y0077909D02*
X0062450Y0077909D01*
X0062450Y0077311D02*
X0063050Y0077311D01*
X0063050Y0076712D02*
X0062450Y0076712D01*
X0062450Y0076114D02*
X0063050Y0076114D01*
X0063050Y0075515D02*
X0062450Y0075515D01*
X0062450Y0079106D02*
X0063050Y0079106D01*
X0063050Y0079100D02*
X0063050Y0083600D01*
X0063093Y0083600D01*
X0063727Y0083474D01*
X0064324Y0083227D01*
X0064861Y0082868D01*
X0065318Y0082411D01*
X0065677Y0081874D01*
X0065924Y0081277D01*
X0066050Y0080643D01*
X0066050Y0079100D01*
X0063050Y0079100D01*
X0063050Y0079705D02*
X0062450Y0079705D01*
X0062450Y0080303D02*
X0063050Y0080303D01*
X0063050Y0080902D02*
X0062450Y0080902D01*
X0062450Y0081501D02*
X0063050Y0081501D01*
X0063050Y0082099D02*
X0062450Y0082099D01*
X0062450Y0082698D02*
X0063050Y0082698D01*
X0063050Y0083296D02*
X0062450Y0083296D01*
X0061344Y0083296D02*
X0056400Y0083296D01*
X0056400Y0082698D02*
X0060469Y0082698D01*
X0059974Y0082099D02*
X0058986Y0082099D01*
X0059584Y0081501D02*
X0059669Y0081501D01*
X0060271Y0085092D02*
X0066100Y0085092D01*
X0066100Y0085690D02*
X0060869Y0085690D01*
X0061189Y0086289D02*
X0066100Y0086289D01*
X0066100Y0086887D02*
X0061400Y0086887D01*
X0061400Y0087486D02*
X0066100Y0087486D01*
X0066100Y0088084D02*
X0061324Y0088084D01*
X0061076Y0088683D02*
X0066100Y0088683D01*
X0066100Y0089281D02*
X0060598Y0089281D01*
X0059663Y0089880D02*
X0065690Y0089880D01*
X0065092Y0090478D02*
X0045302Y0090478D01*
X0044703Y0091077D02*
X0064493Y0091077D01*
X0063895Y0091675D02*
X0044105Y0091675D01*
X0043506Y0092274D02*
X0063296Y0092274D01*
X0062698Y0092872D02*
X0060029Y0092872D01*
X0060750Y0093471D02*
X0062099Y0093471D01*
X0064264Y0095266D02*
X0069850Y0095266D01*
X0069850Y0095801D02*
X0069850Y0094698D01*
X0070258Y0093713D01*
X0071013Y0092958D01*
X0071998Y0092550D01*
X0075501Y0092550D01*
X0076487Y0092958D01*
X0077242Y0093713D01*
X0077299Y0093850D01*
X0078951Y0093850D01*
X0079008Y0093713D01*
X0079763Y0092958D01*
X0080748Y0092550D01*
X0084251Y0092550D01*
X0085237Y0092958D01*
X0085992Y0093713D01*
X0086400Y0094698D01*
X0086400Y0095801D01*
X0085992Y0096787D01*
X0085237Y0097542D01*
X0084251Y0097950D01*
X0080748Y0097950D01*
X0079763Y0097542D01*
X0079008Y0096787D01*
X0078951Y0096650D01*
X0077299Y0096650D01*
X0077242Y0096787D01*
X0076487Y0097542D01*
X0075501Y0097950D01*
X0071998Y0097950D01*
X0071013Y0097542D01*
X0070258Y0096787D01*
X0069850Y0095801D01*
X0069876Y0095865D02*
X0063665Y0095865D01*
X0063067Y0096463D02*
X0070124Y0096463D01*
X0070533Y0097062D02*
X0060717Y0097062D01*
X0059951Y0097660D02*
X0071299Y0097660D01*
X0069863Y0094668D02*
X0064862Y0094668D01*
X0065461Y0094069D02*
X0070111Y0094069D01*
X0070500Y0093471D02*
X0066059Y0093471D01*
X0066658Y0092872D02*
X0071221Y0092872D01*
X0068453Y0091077D02*
X0128200Y0091077D01*
X0128200Y0091675D02*
X0067855Y0091675D01*
X0067256Y0092274D02*
X0128200Y0092274D01*
X0128200Y0092872D02*
X0085029Y0092872D01*
X0085750Y0093471D02*
X0128200Y0093471D01*
X0128200Y0094069D02*
X0086139Y0094069D01*
X0086387Y0094668D02*
X0128200Y0094668D01*
X0128200Y0095266D02*
X0086400Y0095266D01*
X0086374Y0095865D02*
X0128200Y0095865D01*
X0128200Y0096463D02*
X0086126Y0096463D01*
X0085717Y0097062D02*
X0128200Y0097062D01*
X0128200Y0097660D02*
X0084951Y0097660D01*
X0080049Y0097660D02*
X0076201Y0097660D01*
X0076967Y0097062D02*
X0079283Y0097062D01*
X0079250Y0093471D02*
X0077000Y0093471D01*
X0076279Y0092872D02*
X0079971Y0092872D01*
X0080383Y0090332D02*
X0079822Y0090099D01*
X0079317Y0089762D01*
X0078888Y0089333D01*
X0078551Y0088828D01*
X0078318Y0088267D01*
X0078200Y0087672D01*
X0078200Y0087650D01*
X0082200Y0087650D01*
X0082200Y0090450D01*
X0080978Y0090450D01*
X0080383Y0090332D01*
X0079494Y0089880D02*
X0075913Y0089880D01*
X0076848Y0089281D02*
X0078854Y0089281D01*
X0078491Y0088683D02*
X0077326Y0088683D01*
X0077574Y0088084D02*
X0078282Y0088084D01*
X0077650Y0087486D02*
X0082200Y0087486D01*
X0082200Y0087650D02*
X0082200Y0087050D01*
X0082800Y0087050D01*
X0082800Y0087650D01*
X0082200Y0087650D01*
X0082200Y0088084D02*
X0082800Y0088084D01*
X0082800Y0087650D02*
X0082800Y0090450D01*
X0084022Y0090450D01*
X0084617Y0090332D01*
X0085178Y0090099D01*
X0085683Y0089762D01*
X0086112Y0089333D01*
X0086449Y0088828D01*
X0086682Y0088267D01*
X0086800Y0087672D01*
X0086800Y0087650D01*
X0082800Y0087650D01*
X0082800Y0087486D02*
X0104306Y0087486D01*
X0104905Y0088084D02*
X0086718Y0088084D01*
X0086509Y0088683D02*
X0105873Y0088683D01*
X0107318Y0089281D02*
X0086146Y0089281D01*
X0085506Y0089880D02*
X0128200Y0089880D01*
X0128200Y0090478D02*
X0068900Y0090478D01*
X0068900Y0089880D02*
X0071587Y0089880D01*
X0070652Y0089281D02*
X0068900Y0089281D01*
X0068900Y0088683D02*
X0070174Y0088683D01*
X0069926Y0088084D02*
X0068900Y0088084D01*
X0068900Y0087486D02*
X0069850Y0087486D01*
X0069850Y0086887D02*
X0068900Y0086887D01*
X0068900Y0086289D02*
X0070061Y0086289D01*
X0070381Y0085690D02*
X0068900Y0085690D01*
X0068900Y0085092D02*
X0070979Y0085092D01*
X0068900Y0084493D02*
X0073350Y0084493D01*
X0073350Y0083895D02*
X0068900Y0083895D01*
X0068900Y0083296D02*
X0073350Y0083296D01*
X0072954Y0082698D02*
X0069332Y0082698D01*
X0069931Y0082099D02*
X0072436Y0082099D01*
X0072102Y0081501D02*
X0070529Y0081501D01*
X0071128Y0080902D02*
X0071854Y0080902D01*
X0071850Y0080303D02*
X0071726Y0080303D01*
X0068964Y0079106D02*
X0066050Y0079106D01*
X0066050Y0079705D02*
X0068365Y0079705D01*
X0067767Y0080303D02*
X0066050Y0080303D01*
X0065998Y0080902D02*
X0067168Y0080902D01*
X0066570Y0081501D02*
X0065831Y0081501D01*
X0066100Y0082099D02*
X0065526Y0082099D01*
X0065031Y0082698D02*
X0066100Y0082698D01*
X0066100Y0083296D02*
X0064156Y0083296D01*
X0066100Y0083895D02*
X0056400Y0083895D01*
X0056400Y0084493D02*
X0066100Y0084493D01*
X0076150Y0084493D02*
X0080082Y0084493D01*
X0079822Y0084601D02*
X0080383Y0084368D01*
X0080978Y0084250D01*
X0082200Y0084250D01*
X0082200Y0087050D01*
X0078200Y0087050D01*
X0078200Y0087028D01*
X0078318Y0086433D01*
X0078551Y0085872D01*
X0078888Y0085367D01*
X0079317Y0084938D01*
X0079822Y0084601D01*
X0079164Y0085092D02*
X0076521Y0085092D01*
X0077119Y0085690D02*
X0078672Y0085690D01*
X0078378Y0086289D02*
X0077439Y0086289D01*
X0077650Y0086887D02*
X0078228Y0086887D01*
X0076150Y0083895D02*
X0101983Y0083895D01*
X0102231Y0084493D02*
X0084918Y0084493D01*
X0085178Y0084601D02*
X0085683Y0084938D01*
X0086112Y0085367D01*
X0086449Y0085872D01*
X0086682Y0086433D01*
X0086800Y0087028D01*
X0086800Y0087050D01*
X0082800Y0087050D01*
X0082800Y0084250D01*
X0084022Y0084250D01*
X0084617Y0084368D01*
X0085178Y0084601D01*
X0085836Y0085092D02*
X0102478Y0085092D01*
X0102726Y0085690D02*
X0086328Y0085690D01*
X0086622Y0086289D02*
X0103109Y0086289D01*
X0103708Y0086887D02*
X0086772Y0086887D01*
X0082800Y0086887D02*
X0082200Y0086887D01*
X0082200Y0086289D02*
X0082800Y0086289D01*
X0082800Y0085690D02*
X0082200Y0085690D01*
X0082200Y0085092D02*
X0082800Y0085092D01*
X0082800Y0084493D02*
X0082200Y0084493D01*
X0082200Y0088683D02*
X0082800Y0088683D01*
X0082800Y0089281D02*
X0082200Y0089281D01*
X0082200Y0089880D02*
X0082800Y0089880D01*
X0082800Y0078350D02*
X0082800Y0075550D01*
X0082200Y0075550D01*
X0082200Y0078350D01*
X0080978Y0078350D01*
X0080383Y0078232D01*
X0079822Y0077999D01*
X0079317Y0077662D01*
X0078888Y0077233D01*
X0078551Y0076728D01*
X0078318Y0076167D01*
X0078200Y0075572D01*
X0078200Y0075550D01*
X0082200Y0075550D01*
X0082200Y0074950D01*
X0082800Y0074950D01*
X0082800Y0075550D01*
X0086800Y0075550D01*
X0086800Y0075572D01*
X0086682Y0076167D01*
X0086449Y0076728D01*
X0086112Y0077233D01*
X0085683Y0077662D01*
X0085178Y0077999D01*
X0084617Y0078232D01*
X0084022Y0078350D01*
X0082800Y0078350D01*
X0082800Y0077909D02*
X0082200Y0077909D01*
X0082200Y0077311D02*
X0082800Y0077311D01*
X0082800Y0076712D02*
X0082200Y0076712D01*
X0082200Y0076114D02*
X0082800Y0076114D01*
X0082800Y0075515D02*
X0103905Y0075515D01*
X0104504Y0074917D02*
X0086798Y0074917D01*
X0086800Y0074928D02*
X0086800Y0074950D01*
X0082800Y0074950D01*
X0082800Y0072150D01*
X0084022Y0072150D01*
X0084617Y0072268D01*
X0085178Y0072501D01*
X0085683Y0072838D01*
X0086112Y0073267D01*
X0086449Y0073772D01*
X0086682Y0074333D01*
X0086800Y0074928D01*
X0086675Y0074318D02*
X0105102Y0074318D01*
X0106350Y0073720D02*
X0086414Y0073720D01*
X0085966Y0073121D02*
X0107795Y0073121D01*
X0112205Y0073121D02*
X0128200Y0073121D01*
X0128200Y0072523D02*
X0085211Y0072523D01*
X0082800Y0072523D02*
X0082200Y0072523D01*
X0082200Y0072150D02*
X0082200Y0074950D01*
X0078200Y0074950D01*
X0078200Y0074928D01*
X0078318Y0074333D01*
X0078551Y0073772D01*
X0078888Y0073267D01*
X0079317Y0072838D01*
X0079822Y0072501D01*
X0080383Y0072268D01*
X0080978Y0072150D01*
X0082200Y0072150D01*
X0082200Y0073121D02*
X0082800Y0073121D01*
X0082800Y0073720D02*
X0082200Y0073720D01*
X0082200Y0074318D02*
X0082800Y0074318D01*
X0082800Y0074917D02*
X0082200Y0074917D01*
X0082200Y0075515D02*
X0077351Y0075515D01*
X0077351Y0074917D02*
X0078202Y0074917D01*
X0078324Y0074318D02*
X0077351Y0074318D01*
X0077351Y0073720D02*
X0078586Y0073720D01*
X0079034Y0073121D02*
X0077351Y0073121D01*
X0077351Y0072523D02*
X0079789Y0072523D01*
X0077351Y0071924D02*
X0128200Y0071924D01*
X0128200Y0071326D02*
X0077351Y0071326D01*
X0077351Y0070727D02*
X0128200Y0070727D01*
X0128200Y0073720D02*
X0113650Y0073720D01*
X0114898Y0074318D02*
X0128200Y0074318D01*
X0128200Y0074917D02*
X0115496Y0074917D01*
X0116095Y0075515D02*
X0128200Y0075515D01*
X0128200Y0076114D02*
X0116693Y0076114D01*
X0117192Y0076712D02*
X0128200Y0076712D01*
X0128200Y0077311D02*
X0117440Y0077311D01*
X0117688Y0077909D02*
X0128200Y0077909D01*
X0128200Y0078508D02*
X0117936Y0078508D01*
X0118183Y0079106D02*
X0128200Y0079106D01*
X0128200Y0079705D02*
X0118400Y0079705D01*
X0118400Y0080303D02*
X0128200Y0080303D01*
X0128200Y0080902D02*
X0118400Y0080902D01*
X0118400Y0081501D02*
X0128200Y0081501D01*
X0128200Y0082099D02*
X0118400Y0082099D01*
X0118400Y0082698D02*
X0128200Y0082698D01*
X0128200Y0083296D02*
X0118265Y0083296D01*
X0118017Y0083895D02*
X0128200Y0083895D01*
X0128200Y0084493D02*
X0117769Y0084493D01*
X0117522Y0085092D02*
X0128200Y0085092D01*
X0128200Y0085690D02*
X0117274Y0085690D01*
X0116891Y0086289D02*
X0128200Y0086289D01*
X0128200Y0086887D02*
X0116292Y0086887D01*
X0115694Y0087486D02*
X0128200Y0087486D01*
X0128200Y0088084D02*
X0115095Y0088084D01*
X0114127Y0088683D02*
X0128200Y0088683D01*
X0128200Y0089281D02*
X0112682Y0089281D01*
X0102064Y0078508D02*
X0077650Y0078508D01*
X0077650Y0077909D02*
X0079688Y0077909D01*
X0078966Y0077311D02*
X0077650Y0077311D01*
X0077650Y0076712D02*
X0078544Y0076712D01*
X0078308Y0076114D02*
X0077404Y0076114D01*
X0085312Y0077909D02*
X0102312Y0077909D01*
X0102560Y0077311D02*
X0086034Y0077311D01*
X0086456Y0076712D02*
X0102808Y0076712D01*
X0103307Y0076114D02*
X0086692Y0076114D01*
X0085349Y0069530D02*
X0107919Y0069530D01*
X0106475Y0068932D02*
X0085947Y0068932D01*
X0086221Y0068333D02*
X0105154Y0068333D01*
X0104555Y0067735D02*
X0086400Y0067735D01*
X0086400Y0067136D02*
X0103957Y0067136D01*
X0103358Y0066538D02*
X0086292Y0066538D01*
X0086044Y0065939D02*
X0102830Y0065939D01*
X0102582Y0065341D02*
X0085520Y0065341D01*
X0084474Y0064742D02*
X0102334Y0064742D01*
X0102086Y0064144D02*
X0081274Y0064144D01*
X0080675Y0063545D02*
X0101838Y0063545D01*
X0101600Y0062947D02*
X0080077Y0062947D01*
X0078511Y0065341D02*
X0064949Y0065341D01*
X0064949Y0065939D02*
X0078956Y0065939D01*
X0084793Y0058159D02*
X0102209Y0058159D01*
X0102457Y0057560D02*
X0085785Y0057560D01*
X0086293Y0056962D02*
X0102705Y0056962D01*
X0103058Y0056363D02*
X0086600Y0056363D01*
X0086762Y0055765D02*
X0103656Y0055765D01*
X0107076Y0049181D02*
X0085698Y0049181D01*
X0086118Y0048582D02*
X0105631Y0048582D01*
X0104805Y0047984D02*
X0086366Y0047984D01*
X0086400Y0047385D02*
X0104206Y0047385D01*
X0103607Y0046787D02*
X0086395Y0046787D01*
X0086147Y0046188D02*
X0103009Y0046188D01*
X0102685Y0045590D02*
X0085769Y0045590D01*
X0085076Y0044991D02*
X0102437Y0044991D01*
X0101108Y0040802D02*
X0074077Y0040802D01*
X0074676Y0040203D02*
X0100509Y0040203D01*
X0099911Y0039605D02*
X0074962Y0039605D01*
X0075150Y0039006D02*
X0099312Y0039006D01*
X0098714Y0038408D02*
X0075150Y0038408D01*
X0075051Y0037809D02*
X0098115Y0037809D01*
X0097517Y0037211D02*
X0074803Y0037211D01*
X0074291Y0036612D02*
X0096918Y0036612D01*
X0096320Y0036014D02*
X0073276Y0036014D01*
X0072650Y0035415D02*
X0095721Y0035415D01*
X0095123Y0034817D02*
X0072650Y0034817D01*
X0072650Y0034218D02*
X0094524Y0034218D01*
X0093926Y0033620D02*
X0072650Y0033620D01*
X0072759Y0033021D02*
X0093327Y0033021D01*
X0092728Y0032423D02*
X0073357Y0032423D01*
X0073956Y0031824D02*
X0092130Y0031824D01*
X0091531Y0031226D02*
X0074554Y0031226D01*
X0075150Y0030627D02*
X0090933Y0030627D01*
X0090334Y0030029D02*
X0075150Y0030029D01*
X0075150Y0029430D02*
X0089736Y0029430D01*
X0089137Y0028832D02*
X0075150Y0028832D01*
X0075150Y0028233D02*
X0088539Y0028233D01*
X0087940Y0027634D02*
X0075150Y0027634D01*
X0075150Y0027036D02*
X0087342Y0027036D01*
X0086743Y0026437D02*
X0075150Y0026437D01*
X0075150Y0025839D02*
X0086145Y0025839D01*
X0085546Y0025240D02*
X0075150Y0025240D01*
X0075150Y0024642D02*
X0084948Y0024642D01*
X0084349Y0024043D02*
X0075150Y0024043D01*
X0075150Y0023445D02*
X0083751Y0023445D01*
X0083152Y0022846D02*
X0075150Y0022846D01*
X0076915Y0022248D02*
X0082554Y0022248D01*
X0085751Y0018657D02*
X0101598Y0018657D01*
X0101649Y0018465D02*
X0102091Y0017399D01*
X0102667Y0016400D01*
X0103370Y0015485D01*
X0104185Y0014670D01*
X0105100Y0013967D01*
X0106099Y0013391D01*
X0107165Y0012949D01*
X0108280Y0012651D01*
X0109423Y0012500D01*
X0109700Y0012500D01*
X0109700Y0021000D01*
X0101200Y0021000D01*
X0101200Y0020723D01*
X0101351Y0019580D01*
X0101649Y0018465D01*
X0101818Y0018058D02*
X0085152Y0018058D01*
X0084122Y0017460D02*
X0102066Y0017460D01*
X0102401Y0016861D02*
X0074205Y0016861D01*
X0073603Y0016263D02*
X0102773Y0016263D01*
X0103232Y0015664D02*
X0066231Y0015664D01*
X0063769Y0015664D02*
X0058731Y0015664D01*
X0059151Y0015838D02*
X0058093Y0015400D01*
X0056907Y0015400D01*
X0055849Y0015838D01*
X0055787Y0015900D01*
X0049773Y0015900D01*
X0048891Y0016265D01*
X0048750Y0016406D01*
X0040940Y0008596D01*
X0040058Y0008231D01*
X0032189Y0008231D01*
X0032189Y0006445D01*
X0030849Y0005105D01*
X0011651Y0005105D01*
X0010311Y0006445D01*
X0010311Y0014817D01*
X0011651Y0016157D01*
X0030849Y0016157D01*
X0032189Y0014817D01*
X0032189Y0013031D01*
X0038587Y0013031D01*
X0044471Y0018915D01*
X0044350Y0019207D01*
X0044350Y0020393D01*
X0044788Y0021451D01*
X0045599Y0022262D01*
X0046657Y0022700D01*
X0050843Y0022700D01*
X0051901Y0022262D01*
X0052712Y0021451D01*
X0053023Y0020700D01*
X0055787Y0020700D01*
X0055849Y0020762D01*
X0056907Y0021200D01*
X0058093Y0021200D01*
X0059151Y0020762D01*
X0059962Y0019951D01*
X0060400Y0018893D01*
X0060400Y0017707D01*
X0059962Y0016649D01*
X0059151Y0015838D01*
X0059576Y0016263D02*
X0062924Y0016263D01*
X0062450Y0016861D02*
X0060050Y0016861D01*
X0060298Y0017460D02*
X0062202Y0017460D01*
X0062100Y0018058D02*
X0060400Y0018058D01*
X0060400Y0018657D02*
X0062100Y0018657D01*
X0062250Y0019255D02*
X0060250Y0019255D01*
X0060002Y0019854D02*
X0062498Y0019854D01*
X0063039Y0020452D02*
X0059461Y0020452D01*
X0058453Y0021051D02*
X0064047Y0021051D01*
X0065953Y0021051D02*
X0069623Y0021051D01*
X0069986Y0021649D02*
X0052514Y0021649D01*
X0052877Y0021051D02*
X0056547Y0021051D01*
X0051915Y0022248D02*
X0070585Y0022248D01*
X0072350Y0022846D02*
X0032189Y0022846D01*
X0032189Y0023445D02*
X0072350Y0023445D01*
X0072350Y0024043D02*
X0032189Y0024043D01*
X0031654Y0022248D02*
X0045585Y0022248D01*
X0044986Y0021649D02*
X0031055Y0021649D01*
X0031342Y0015664D02*
X0041220Y0015664D01*
X0040622Y0015066D02*
X0031940Y0015066D01*
X0032189Y0014467D02*
X0040023Y0014467D01*
X0039425Y0013869D02*
X0032189Y0013869D01*
X0032189Y0013270D02*
X0038826Y0013270D01*
X0041819Y0016263D02*
X0006800Y0016263D01*
X0006800Y0016861D02*
X0042417Y0016861D01*
X0043016Y0017460D02*
X0006800Y0017460D01*
X0006800Y0018058D02*
X0043614Y0018058D01*
X0044213Y0018657D02*
X0006800Y0018657D01*
X0006800Y0019255D02*
X0044350Y0019255D01*
X0044350Y0019854D02*
X0006800Y0019854D01*
X0006800Y0020452D02*
X0044375Y0020452D01*
X0044623Y0021051D02*
X0006800Y0021051D01*
X0006800Y0021649D02*
X0011445Y0021649D01*
X0010846Y0022248D02*
X0006800Y0022248D01*
X0006800Y0022846D02*
X0010311Y0022846D01*
X0010311Y0023445D02*
X0006800Y0023445D01*
X0006800Y0024043D02*
X0010311Y0024043D01*
X0010311Y0024642D02*
X0006800Y0024642D01*
X0006800Y0025240D02*
X0010311Y0025240D01*
X0010311Y0025839D02*
X0006800Y0025839D01*
X0006800Y0026437D02*
X0010311Y0026437D01*
X0010311Y0027036D02*
X0006800Y0027036D01*
X0006800Y0027634D02*
X0010311Y0027634D01*
X0010311Y0028233D02*
X0006800Y0028233D01*
X0006800Y0028832D02*
X0010311Y0028832D01*
X0010311Y0029430D02*
X0006800Y0029430D01*
X0006800Y0030029D02*
X0010311Y0030029D01*
X0010311Y0030627D02*
X0006800Y0030627D01*
X0006800Y0031226D02*
X0010381Y0031226D01*
X0010980Y0031824D02*
X0006800Y0031824D01*
X0006800Y0032423D02*
X0011578Y0032423D01*
X0016717Y0034218D02*
X0017298Y0034218D01*
X0017298Y0034817D02*
X0016717Y0034817D01*
X0016717Y0035415D02*
X0017298Y0035415D01*
X0017298Y0036014D02*
X0016717Y0036014D01*
X0016717Y0036612D02*
X0017298Y0036612D01*
X0017298Y0037211D02*
X0016717Y0037211D01*
X0016717Y0038408D02*
X0017298Y0038408D01*
X0017298Y0039006D02*
X0016717Y0039006D01*
X0016717Y0039605D02*
X0017298Y0039605D01*
X0017298Y0040203D02*
X0016717Y0040203D01*
X0016717Y0040802D02*
X0017298Y0040802D01*
X0016708Y0044094D02*
X0015065Y0044094D01*
X0014734Y0044183D01*
X0014438Y0044354D01*
X0014196Y0044596D01*
X0014025Y0044893D01*
X0013936Y0045223D01*
X0013936Y0051000D01*
X0016708Y0051000D01*
X0016708Y0044094D01*
X0016708Y0044393D02*
X0017308Y0044393D01*
X0017308Y0044991D02*
X0016708Y0044991D01*
X0016708Y0045590D02*
X0017308Y0045590D01*
X0017308Y0046188D02*
X0016708Y0046188D01*
X0016708Y0046787D02*
X0017308Y0046787D01*
X0017308Y0047385D02*
X0016708Y0047385D01*
X0016708Y0047984D02*
X0017308Y0047984D01*
X0017308Y0048582D02*
X0016708Y0048582D01*
X0016708Y0049181D02*
X0017308Y0049181D01*
X0017308Y0049779D02*
X0016708Y0049779D01*
X0016708Y0050378D02*
X0017308Y0050378D01*
X0017308Y0050976D02*
X0016708Y0050976D01*
X0016708Y0051575D02*
X0006800Y0051575D01*
X0006800Y0052173D02*
X0013936Y0052173D01*
X0013936Y0052772D02*
X0006800Y0052772D01*
X0006800Y0053370D02*
X0013936Y0053370D01*
X0013936Y0053969D02*
X0006800Y0053969D01*
X0006800Y0054568D02*
X0013936Y0054568D01*
X0013936Y0055166D02*
X0006800Y0055166D01*
X0006800Y0055765D02*
X0013936Y0055765D01*
X0013936Y0056363D02*
X0006800Y0056363D01*
X0006800Y0056962D02*
X0013936Y0056962D01*
X0013985Y0057560D02*
X0006800Y0057560D01*
X0006800Y0058159D02*
X0014351Y0058159D01*
X0016708Y0058159D02*
X0017308Y0058159D01*
X0017308Y0057560D02*
X0016708Y0057560D01*
X0016708Y0056962D02*
X0017308Y0056962D01*
X0017308Y0056363D02*
X0016708Y0056363D01*
X0016708Y0055765D02*
X0017308Y0055765D01*
X0017308Y0055166D02*
X0016708Y0055166D01*
X0016708Y0054568D02*
X0017308Y0054568D01*
X0017308Y0053969D02*
X0016708Y0053969D01*
X0016708Y0053370D02*
X0017308Y0053370D01*
X0017308Y0052772D02*
X0016708Y0052772D01*
X0016708Y0052173D02*
X0017308Y0052173D01*
X0013936Y0050976D02*
X0006800Y0050976D01*
X0006800Y0050378D02*
X0013936Y0050378D01*
X0013936Y0049779D02*
X0006800Y0049779D01*
X0006800Y0049181D02*
X0013936Y0049181D01*
X0013936Y0048582D02*
X0006800Y0048582D01*
X0006800Y0047984D02*
X0013936Y0047984D01*
X0013936Y0047385D02*
X0006800Y0047385D01*
X0006800Y0046787D02*
X0013936Y0046787D01*
X0013936Y0046188D02*
X0006800Y0046188D01*
X0006800Y0045590D02*
X0013936Y0045590D01*
X0013998Y0044991D02*
X0006800Y0044991D01*
X0006800Y0044393D02*
X0014399Y0044393D01*
X0019616Y0044393D02*
X0020397Y0044393D01*
X0020084Y0043794D02*
X0006800Y0043794D01*
X0006800Y0043196D02*
X0019906Y0043196D01*
X0023204Y0046188D02*
X0033195Y0046188D01*
X0032511Y0046787D02*
X0026686Y0046787D01*
X0026404Y0047385D02*
X0032137Y0047385D01*
X0031919Y0047984D02*
X0026319Y0047984D01*
X0026372Y0048582D02*
X0034700Y0048582D01*
X0034700Y0047984D02*
X0035300Y0047984D01*
X0035300Y0047385D02*
X0034700Y0047385D01*
X0034700Y0046787D02*
X0035300Y0046787D01*
X0035300Y0046188D02*
X0034700Y0046188D01*
X0031852Y0049181D02*
X0026372Y0049181D01*
X0026038Y0049779D02*
X0031997Y0049779D01*
X0032286Y0050378D02*
X0026154Y0050378D01*
X0026372Y0050976D02*
X0032773Y0050976D01*
X0033679Y0051575D02*
X0026372Y0051575D01*
X0026203Y0052173D02*
X0038805Y0052173D01*
X0038805Y0051575D02*
X0036321Y0051575D01*
X0037227Y0050976D02*
X0038805Y0050976D01*
X0038805Y0050378D02*
X0037714Y0050378D01*
X0038003Y0049779D02*
X0038805Y0049779D01*
X0038805Y0049181D02*
X0038148Y0049181D01*
X0038805Y0052772D02*
X0025989Y0052772D01*
X0026372Y0053370D02*
X0038805Y0053370D01*
X0038805Y0053969D02*
X0026372Y0053969D01*
X0026368Y0054568D02*
X0038805Y0054568D01*
X0044150Y0057560D02*
X0060149Y0057560D01*
X0060149Y0058159D02*
X0044150Y0058159D01*
X0044150Y0058757D02*
X0060149Y0058757D01*
X0060149Y0059356D02*
X0055031Y0059356D01*
X0055074Y0059373D02*
X0055611Y0059732D01*
X0056068Y0060189D01*
X0056427Y0060726D01*
X0056674Y0061323D01*
X0056800Y0061957D01*
X0056800Y0063500D01*
X0053800Y0063500D01*
X0053800Y0064100D01*
X0053200Y0064100D01*
X0053200Y0068600D01*
X0053157Y0068600D01*
X0052523Y0068474D01*
X0051926Y0068227D01*
X0051389Y0067868D01*
X0050932Y0067411D01*
X0050573Y0066874D01*
X0050326Y0066277D01*
X0050200Y0065643D01*
X0050200Y0064100D01*
X0053200Y0064100D01*
X0053200Y0063500D01*
X0050200Y0063500D01*
X0050200Y0061957D01*
X0050326Y0061323D01*
X0050573Y0060726D01*
X0050932Y0060189D01*
X0051389Y0059732D01*
X0051926Y0059373D01*
X0052523Y0059126D01*
X0053157Y0059000D01*
X0053200Y0059000D01*
X0053200Y0063500D01*
X0053800Y0063500D01*
X0053800Y0059000D01*
X0053843Y0059000D01*
X0054477Y0059126D01*
X0055074Y0059373D01*
X0055833Y0059954D02*
X0060149Y0059954D01*
X0060149Y0060553D02*
X0056311Y0060553D01*
X0056603Y0061151D02*
X0060149Y0061151D01*
X0060149Y0061750D02*
X0056759Y0061750D01*
X0056800Y0062348D02*
X0060149Y0062348D01*
X0060149Y0062947D02*
X0056800Y0062947D01*
X0056800Y0064100D02*
X0056800Y0065643D01*
X0056674Y0066277D01*
X0056427Y0066874D01*
X0056068Y0067411D01*
X0055611Y0067868D01*
X0055074Y0068227D01*
X0054477Y0068474D01*
X0053843Y0068600D01*
X0053800Y0068600D01*
X0053800Y0064100D01*
X0056800Y0064100D01*
X0056800Y0064144D02*
X0060149Y0064144D01*
X0060149Y0064742D02*
X0056800Y0064742D01*
X0056800Y0065341D02*
X0060149Y0065341D01*
X0060149Y0065939D02*
X0056741Y0065939D01*
X0056566Y0066538D02*
X0060149Y0066538D01*
X0060149Y0067136D02*
X0056251Y0067136D01*
X0055744Y0067735D02*
X0060052Y0067735D01*
X0059878Y0068333D02*
X0054816Y0068333D01*
X0053800Y0068333D02*
X0053200Y0068333D01*
X0053200Y0067735D02*
X0053800Y0067735D01*
X0053800Y0067136D02*
X0053200Y0067136D01*
X0053200Y0066538D02*
X0053800Y0066538D01*
X0053800Y0065939D02*
X0053200Y0065939D01*
X0053200Y0065341D02*
X0053800Y0065341D01*
X0053800Y0064742D02*
X0053200Y0064742D01*
X0053200Y0064144D02*
X0053800Y0064144D01*
X0053800Y0063545D02*
X0060149Y0063545D01*
X0053800Y0062947D02*
X0053200Y0062947D01*
X0053200Y0063545D02*
X0044400Y0063545D01*
X0044400Y0062947D02*
X0050200Y0062947D01*
X0050200Y0062348D02*
X0044400Y0062348D01*
X0044400Y0061750D02*
X0050241Y0061750D01*
X0050397Y0061151D02*
X0044170Y0061151D01*
X0044150Y0060553D02*
X0050689Y0060553D01*
X0051167Y0059954D02*
X0044150Y0059954D01*
X0044150Y0059356D02*
X0051969Y0059356D01*
X0053200Y0059356D02*
X0053800Y0059356D01*
X0053800Y0059954D02*
X0053200Y0059954D01*
X0053200Y0060553D02*
X0053800Y0060553D01*
X0053800Y0061151D02*
X0053200Y0061151D01*
X0053200Y0061750D02*
X0053800Y0061750D01*
X0053800Y0062348D02*
X0053200Y0062348D01*
X0050200Y0064144D02*
X0044400Y0064144D01*
X0044400Y0064742D02*
X0050200Y0064742D01*
X0050200Y0065341D02*
X0044400Y0065341D01*
X0044400Y0065939D02*
X0050259Y0065939D01*
X0050434Y0066538D02*
X0044400Y0066538D01*
X0044400Y0067136D02*
X0050749Y0067136D01*
X0051256Y0067735D02*
X0044400Y0067735D01*
X0044400Y0068333D02*
X0052184Y0068333D01*
X0050044Y0070727D02*
X0055237Y0070727D01*
X0054638Y0071326D02*
X0050403Y0071326D01*
X0050651Y0071924D02*
X0054356Y0071924D01*
X0054356Y0072523D02*
X0050676Y0072523D01*
X0050676Y0073121D02*
X0054356Y0073121D01*
X0054564Y0073720D02*
X0050436Y0073720D01*
X0050118Y0074318D02*
X0054820Y0074318D01*
X0054331Y0074917D02*
X0049520Y0074917D01*
X0049176Y0075515D02*
X0054057Y0075515D01*
X0053983Y0076712D02*
X0049176Y0076712D01*
X0049176Y0076114D02*
X0056924Y0076114D01*
X0054149Y0077311D02*
X0049176Y0077311D01*
X0049465Y0077909D02*
X0054482Y0077909D01*
X0054936Y0078508D02*
X0050064Y0078508D01*
X0050644Y0079106D02*
X0053954Y0079106D01*
X0053600Y0079705D02*
X0050644Y0079705D01*
X0050644Y0080303D02*
X0053600Y0080303D01*
X0053600Y0080902D02*
X0050644Y0080902D01*
X0050135Y0081501D02*
X0053600Y0081501D01*
X0053600Y0082099D02*
X0049537Y0082099D01*
X0050271Y0085092D02*
X0053600Y0085092D01*
X0053600Y0085690D02*
X0050869Y0085690D01*
X0053600Y0084493D02*
X0039918Y0084493D01*
X0040178Y0084601D02*
X0040683Y0084938D01*
X0041112Y0085367D01*
X0041449Y0085872D01*
X0041682Y0086433D01*
X0041800Y0087028D01*
X0041800Y0087050D01*
X0037800Y0087050D01*
X0037800Y0084250D01*
X0039022Y0084250D01*
X0039617Y0084368D01*
X0040178Y0084601D01*
X0040836Y0085092D02*
X0044729Y0085092D01*
X0044131Y0085690D02*
X0041328Y0085690D01*
X0041622Y0086289D02*
X0043811Y0086289D01*
X0043600Y0086887D02*
X0041772Y0086887D01*
X0041800Y0087650D02*
X0041800Y0087672D01*
X0041682Y0088267D01*
X0041449Y0088828D01*
X0041112Y0089333D01*
X0040683Y0089762D01*
X0040178Y0090099D01*
X0039617Y0090332D01*
X0039022Y0090450D01*
X0037800Y0090450D01*
X0037800Y0087650D01*
X0041800Y0087650D01*
X0041718Y0088084D02*
X0043676Y0088084D01*
X0043600Y0087486D02*
X0037800Y0087486D01*
X0037800Y0088084D02*
X0037200Y0088084D01*
X0037200Y0088683D02*
X0037800Y0088683D01*
X0037800Y0089281D02*
X0037200Y0089281D01*
X0037200Y0089880D02*
X0037800Y0089880D01*
X0040506Y0089880D02*
X0041940Y0089880D01*
X0041342Y0090478D02*
X0033700Y0090478D01*
X0033700Y0089880D02*
X0034494Y0089880D01*
X0033854Y0089281D02*
X0033700Y0089281D01*
X0033700Y0091077D02*
X0040743Y0091077D01*
X0040145Y0091675D02*
X0033700Y0091675D01*
X0033602Y0092274D02*
X0039546Y0092274D01*
X0041711Y0094069D02*
X0043861Y0094069D01*
X0043613Y0094668D02*
X0041387Y0094668D01*
X0041400Y0095266D02*
X0043600Y0095266D01*
X0043626Y0095865D02*
X0041374Y0095865D01*
X0041126Y0096463D02*
X0043874Y0096463D01*
X0044283Y0097062D02*
X0040717Y0097062D01*
X0039951Y0097660D02*
X0045049Y0097660D01*
X0044250Y0093471D02*
X0042309Y0093471D01*
X0042908Y0092872D02*
X0044971Y0092872D01*
X0042539Y0089281D02*
X0041146Y0089281D01*
X0041509Y0088683D02*
X0043137Y0088683D01*
X0037800Y0086887D02*
X0037200Y0086887D01*
X0037200Y0086289D02*
X0037800Y0086289D01*
X0037800Y0085690D02*
X0037200Y0085690D01*
X0037200Y0085092D02*
X0037800Y0085092D01*
X0037800Y0084493D02*
X0037200Y0084493D01*
X0035082Y0084493D02*
X0033700Y0084493D01*
X0033700Y0083895D02*
X0053600Y0083895D01*
X0053600Y0083296D02*
X0033700Y0083296D01*
X0033700Y0082698D02*
X0053600Y0082698D01*
X0046014Y0082099D02*
X0035370Y0082099D01*
X0035989Y0081501D02*
X0045416Y0081501D01*
X0050598Y0089281D02*
X0054402Y0089281D01*
X0055337Y0089880D02*
X0049663Y0089880D01*
X0050029Y0092872D02*
X0054971Y0092872D01*
X0054250Y0093471D02*
X0050750Y0093471D01*
X0050717Y0097062D02*
X0054283Y0097062D01*
X0055049Y0097660D02*
X0049951Y0097660D01*
X0035049Y0097660D02*
X0028266Y0097660D01*
X0029471Y0097062D02*
X0034283Y0097062D01*
X0033874Y0096463D02*
X0030069Y0096463D01*
X0030668Y0095865D02*
X0033626Y0095865D01*
X0033600Y0095266D02*
X0031266Y0095266D01*
X0031865Y0094668D02*
X0033613Y0094668D01*
X0033861Y0094069D02*
X0032463Y0094069D01*
X0033062Y0093471D02*
X0034250Y0093471D01*
X0034971Y0092872D02*
X0033354Y0092872D01*
X0026188Y0089880D02*
X0024745Y0089880D01*
X0033700Y0085092D02*
X0034164Y0085092D01*
X0027506Y0077311D02*
X0025733Y0077311D01*
X0026427Y0076712D02*
X0028389Y0076712D01*
X0032050Y0068333D02*
X0021085Y0068333D01*
X0021105Y0068325D02*
X0020438Y0068601D01*
X0019731Y0068742D01*
X0017298Y0068742D01*
X0017298Y0065370D01*
X0016717Y0065370D01*
X0016717Y0064789D01*
X0010983Y0064789D01*
X0010983Y0064719D01*
X0011124Y0064011D01*
X0011400Y0063345D01*
X0011801Y0062745D01*
X0012311Y0062235D01*
X0012911Y0061834D01*
X0013577Y0061558D01*
X0014285Y0061417D01*
X0016717Y0061417D01*
X0016717Y0064789D01*
X0017298Y0064789D01*
X0017298Y0065370D01*
X0023032Y0065370D01*
X0023032Y0065440D01*
X0022892Y0066148D01*
X0022615Y0066814D01*
X0022215Y0067414D01*
X0021705Y0067924D01*
X0021105Y0068325D01*
X0021894Y0067735D02*
X0032050Y0067735D01*
X0032050Y0067136D02*
X0022400Y0067136D01*
X0022730Y0066538D02*
X0032050Y0066538D01*
X0032050Y0065939D02*
X0022933Y0065939D01*
X0023032Y0064742D02*
X0032050Y0064742D01*
X0032050Y0064144D02*
X0022918Y0064144D01*
X0022698Y0063545D02*
X0032050Y0063545D01*
X0032050Y0062947D02*
X0029082Y0062947D01*
X0029816Y0062348D02*
X0032050Y0062348D01*
X0032050Y0061750D02*
X0030263Y0061750D01*
X0030535Y0061151D02*
X0032050Y0061151D01*
X0032050Y0060553D02*
X0030677Y0060553D01*
X0032050Y0059954D02*
X0025576Y0059954D01*
X0025576Y0060553D02*
X0024976Y0060553D01*
X0024976Y0061151D02*
X0025576Y0061151D01*
X0025576Y0061750D02*
X0024976Y0061750D01*
X0024976Y0062348D02*
X0025576Y0062348D01*
X0025576Y0062947D02*
X0024976Y0062947D01*
X0024976Y0059954D02*
X0006800Y0059954D01*
X0006800Y0059356D02*
X0019916Y0059356D01*
X0020104Y0058757D02*
X0006800Y0058757D01*
X0006800Y0060553D02*
X0019874Y0060553D01*
X0020016Y0061151D02*
X0006800Y0061151D01*
X0006800Y0061750D02*
X0013115Y0061750D01*
X0012198Y0062348D02*
X0006800Y0062348D01*
X0006800Y0062947D02*
X0011666Y0062947D01*
X0011317Y0063545D02*
X0006800Y0063545D01*
X0006800Y0064144D02*
X0011098Y0064144D01*
X0010983Y0064742D02*
X0006800Y0064742D01*
X0006800Y0065341D02*
X0016717Y0065341D01*
X0016717Y0065370D02*
X0010983Y0065370D01*
X0010983Y0065440D01*
X0011124Y0066148D01*
X0011400Y0066814D01*
X0011801Y0067414D01*
X0012311Y0067924D01*
X0012911Y0068325D01*
X0013577Y0068601D01*
X0014285Y0068742D01*
X0016717Y0068742D01*
X0016717Y0065370D01*
X0016717Y0065939D02*
X0017298Y0065939D01*
X0017298Y0065341D02*
X0032050Y0065341D01*
X0032050Y0059356D02*
X0030635Y0059356D01*
X0030447Y0058757D02*
X0032050Y0058757D01*
X0032050Y0058159D02*
X0030121Y0058159D01*
X0020430Y0058159D02*
X0019665Y0058159D01*
X0020030Y0057560D02*
X0020286Y0057560D01*
X0017298Y0061750D02*
X0016717Y0061750D01*
X0016717Y0062348D02*
X0017298Y0062348D01*
X0017298Y0062947D02*
X0016717Y0062947D01*
X0016717Y0063545D02*
X0017298Y0063545D01*
X0017298Y0064144D02*
X0016717Y0064144D01*
X0016717Y0064742D02*
X0017298Y0064742D01*
X0017298Y0066538D02*
X0016717Y0066538D01*
X0016717Y0067136D02*
X0017298Y0067136D01*
X0017298Y0067735D02*
X0016717Y0067735D01*
X0016717Y0068333D02*
X0017298Y0068333D01*
X0012931Y0068333D02*
X0006800Y0068333D01*
X0006800Y0067735D02*
X0012122Y0067735D01*
X0011615Y0067136D02*
X0006800Y0067136D01*
X0006800Y0066538D02*
X0011286Y0066538D01*
X0011083Y0065939D02*
X0006800Y0065939D01*
X0024976Y0041400D02*
X0025576Y0041400D01*
X0025576Y0040802D02*
X0024976Y0040802D01*
X0024976Y0040203D02*
X0025576Y0040203D01*
X0025576Y0039605D02*
X0024976Y0039605D01*
X0022719Y0039006D02*
X0034321Y0039006D01*
X0033171Y0038408D02*
X0022928Y0038408D01*
X0029010Y0039605D02*
X0038805Y0039605D01*
X0038805Y0040203D02*
X0029767Y0040203D01*
X0030230Y0040802D02*
X0038805Y0040802D01*
X0038805Y0041400D02*
X0030515Y0041400D01*
X0035679Y0039006D02*
X0038805Y0039006D01*
X0038805Y0038408D02*
X0036829Y0038408D01*
X0037391Y0037809D02*
X0038805Y0037809D01*
X0038805Y0037211D02*
X0037639Y0037211D01*
X0037770Y0036612D02*
X0038893Y0036612D01*
X0039492Y0036014D02*
X0037770Y0036014D01*
X0037609Y0035415D02*
X0040090Y0035415D01*
X0037400Y0034817D02*
X0056100Y0034817D01*
X0056100Y0035415D02*
X0048571Y0035415D01*
X0049170Y0036014D02*
X0055830Y0036014D01*
X0055232Y0036612D02*
X0049768Y0036612D01*
X0049857Y0037211D02*
X0055143Y0037211D01*
X0055143Y0037809D02*
X0049857Y0037809D01*
X0049857Y0038408D02*
X0055143Y0038408D01*
X0055143Y0039006D02*
X0049857Y0039006D01*
X0049857Y0039605D02*
X0055143Y0039605D01*
X0055143Y0040203D02*
X0049857Y0040203D01*
X0049857Y0040802D02*
X0055143Y0040802D01*
X0055143Y0041400D02*
X0049857Y0041400D01*
X0049857Y0041999D02*
X0055143Y0041999D01*
X0055143Y0042597D02*
X0049857Y0042597D01*
X0049857Y0043196D02*
X0055143Y0043196D01*
X0055143Y0043794D02*
X0049857Y0043794D01*
X0049857Y0044393D02*
X0055143Y0044393D01*
X0055143Y0044991D02*
X0049857Y0044991D01*
X0049857Y0045590D02*
X0055143Y0045590D01*
X0055143Y0046188D02*
X0049857Y0046188D01*
X0049857Y0046787D02*
X0055143Y0046787D01*
X0055143Y0047385D02*
X0049857Y0047385D01*
X0049857Y0047984D02*
X0055143Y0047984D01*
X0055143Y0048582D02*
X0049857Y0048582D01*
X0049857Y0049181D02*
X0055143Y0049181D01*
X0055143Y0049779D02*
X0049857Y0049779D01*
X0049857Y0050378D02*
X0055143Y0050378D01*
X0055143Y0050976D02*
X0049857Y0050976D01*
X0049857Y0051575D02*
X0055143Y0051575D01*
X0055143Y0052173D02*
X0049857Y0052173D01*
X0049857Y0052772D02*
X0055143Y0052772D01*
X0055143Y0053370D02*
X0049857Y0053370D01*
X0049857Y0053969D02*
X0055143Y0053969D01*
X0055143Y0054568D02*
X0049857Y0054568D01*
X0049857Y0055166D02*
X0055143Y0055166D01*
X0055143Y0055765D02*
X0049857Y0055765D01*
X0049393Y0056363D02*
X0055607Y0056363D01*
X0056206Y0056962D02*
X0048794Y0056962D01*
X0044400Y0068932D02*
X0059878Y0068932D01*
X0059913Y0069530D02*
X0044400Y0069530D01*
X0049446Y0070129D02*
X0060132Y0070129D01*
X0084905Y0049779D02*
X0128200Y0049779D01*
X0128200Y0049181D02*
X0112924Y0049181D01*
X0114369Y0048582D02*
X0128200Y0048582D01*
X0128200Y0047984D02*
X0115195Y0047984D01*
X0115794Y0047385D02*
X0128200Y0047385D01*
X0128200Y0046787D02*
X0116393Y0046787D01*
X0116991Y0046188D02*
X0128200Y0046188D01*
X0128200Y0045590D02*
X0117315Y0045590D01*
X0117563Y0044991D02*
X0128200Y0044991D01*
X0128200Y0044393D02*
X0117811Y0044393D01*
X0118059Y0043794D02*
X0128200Y0043794D01*
X0128200Y0043196D02*
X0118307Y0043196D01*
X0118400Y0042597D02*
X0128200Y0042597D01*
X0128200Y0041999D02*
X0118400Y0041999D01*
X0118400Y0041400D02*
X0128200Y0041400D01*
X0128200Y0040802D02*
X0118400Y0040802D01*
X0118400Y0040203D02*
X0128200Y0040203D01*
X0128200Y0039605D02*
X0118390Y0039605D01*
X0118142Y0039006D02*
X0128200Y0039006D01*
X0128200Y0038408D02*
X0117894Y0038408D01*
X0117646Y0037809D02*
X0128200Y0037809D01*
X0128200Y0037211D02*
X0117398Y0037211D01*
X0117150Y0036612D02*
X0128200Y0036612D01*
X0128200Y0036014D02*
X0116593Y0036014D01*
X0115995Y0035415D02*
X0128200Y0035415D01*
X0128200Y0034817D02*
X0115396Y0034817D01*
X0114798Y0034218D02*
X0128200Y0034218D01*
X0128200Y0033620D02*
X0113408Y0033620D01*
X0111963Y0033021D02*
X0128200Y0033021D01*
X0128200Y0032423D02*
X0099517Y0032423D01*
X0100115Y0033021D02*
X0108037Y0033021D01*
X0106592Y0033620D02*
X0100714Y0033620D01*
X0101312Y0034218D02*
X0105202Y0034218D01*
X0104604Y0034817D02*
X0101911Y0034817D01*
X0102509Y0035415D02*
X0104005Y0035415D01*
X0103407Y0036014D02*
X0103108Y0036014D01*
X0098918Y0031824D02*
X0128200Y0031824D01*
X0128200Y0031226D02*
X0098320Y0031226D01*
X0097721Y0030627D02*
X0128200Y0030627D01*
X0128200Y0030029D02*
X0111119Y0030029D01*
X0110577Y0030100D02*
X0110300Y0030100D01*
X0110300Y0021600D01*
X0109700Y0021600D01*
X0109700Y0030100D01*
X0109423Y0030100D01*
X0108280Y0029949D01*
X0107165Y0029651D01*
X0106099Y0029209D01*
X0105100Y0028633D01*
X0104185Y0027930D01*
X0103370Y0027115D01*
X0102667Y0026199D01*
X0102091Y0025200D01*
X0101649Y0024135D01*
X0101351Y0023020D01*
X0101200Y0021877D01*
X0101200Y0021600D01*
X0109700Y0021600D01*
X0109700Y0021000D01*
X0110300Y0021000D01*
X0110300Y0021600D01*
X0118800Y0021600D01*
X0118800Y0021877D01*
X0118649Y0023020D01*
X0118351Y0024135D01*
X0117909Y0025200D01*
X0117333Y0026199D01*
X0116630Y0027115D01*
X0115815Y0027930D01*
X0114899Y0028633D01*
X0113900Y0029209D01*
X0112835Y0029651D01*
X0111720Y0029949D01*
X0110577Y0030100D01*
X0110300Y0030029D02*
X0109700Y0030029D01*
X0109700Y0029430D02*
X0110300Y0029430D01*
X0110300Y0028832D02*
X0109700Y0028832D01*
X0109700Y0028233D02*
X0110300Y0028233D01*
X0110300Y0027634D02*
X0109700Y0027634D01*
X0109700Y0027036D02*
X0110300Y0027036D01*
X0110300Y0026437D02*
X0109700Y0026437D01*
X0109700Y0025839D02*
X0110300Y0025839D01*
X0110300Y0025240D02*
X0109700Y0025240D01*
X0109700Y0024642D02*
X0110300Y0024642D01*
X0110300Y0024043D02*
X0109700Y0024043D01*
X0109700Y0023445D02*
X0110300Y0023445D01*
X0110300Y0022846D02*
X0109700Y0022846D01*
X0109700Y0022248D02*
X0110300Y0022248D01*
X0110300Y0021649D02*
X0109700Y0021649D01*
X0109700Y0021051D02*
X0088145Y0021051D01*
X0088743Y0021649D02*
X0101200Y0021649D01*
X0101249Y0022248D02*
X0089342Y0022248D01*
X0089941Y0022846D02*
X0101328Y0022846D01*
X0101464Y0023445D02*
X0090539Y0023445D01*
X0091138Y0024043D02*
X0101625Y0024043D01*
X0101859Y0024642D02*
X0091736Y0024642D01*
X0092335Y0025240D02*
X0102114Y0025240D01*
X0102459Y0025839D02*
X0092933Y0025839D01*
X0093532Y0026437D02*
X0102850Y0026437D01*
X0103309Y0027036D02*
X0094130Y0027036D01*
X0094729Y0027634D02*
X0103889Y0027634D01*
X0104580Y0028233D02*
X0095327Y0028233D01*
X0095926Y0028832D02*
X0105445Y0028832D01*
X0106632Y0029430D02*
X0096524Y0029430D01*
X0097123Y0030029D02*
X0108881Y0030029D01*
X0113368Y0029430D02*
X0128200Y0029430D01*
X0128200Y0028832D02*
X0114555Y0028832D01*
X0115420Y0028233D02*
X0128200Y0028233D01*
X0128200Y0027634D02*
X0116111Y0027634D01*
X0116691Y0027036D02*
X0128200Y0027036D01*
X0128200Y0026437D02*
X0117150Y0026437D01*
X0117541Y0025839D02*
X0128200Y0025839D01*
X0128200Y0025240D02*
X0117886Y0025240D01*
X0118141Y0024642D02*
X0128200Y0024642D01*
X0128200Y0024043D02*
X0118375Y0024043D01*
X0118536Y0023445D02*
X0128200Y0023445D01*
X0128200Y0022846D02*
X0118672Y0022846D01*
X0118751Y0022248D02*
X0128200Y0022248D01*
X0128200Y0021649D02*
X0118800Y0021649D01*
X0118800Y0021000D02*
X0110300Y0021000D01*
X0110300Y0012500D01*
X0110577Y0012500D01*
X0111720Y0012651D01*
X0112835Y0012949D01*
X0113900Y0013391D01*
X0114899Y0013967D01*
X0115815Y0014670D01*
X0116630Y0015485D01*
X0117333Y0016400D01*
X0117909Y0017399D01*
X0118351Y0018465D01*
X0118649Y0019580D01*
X0118800Y0020723D01*
X0118800Y0021000D01*
X0118764Y0020452D02*
X0128200Y0020452D01*
X0128200Y0019854D02*
X0118686Y0019854D01*
X0118563Y0019255D02*
X0128200Y0019255D01*
X0128200Y0018657D02*
X0118402Y0018657D01*
X0118182Y0018058D02*
X0128200Y0018058D01*
X0128200Y0017460D02*
X0117934Y0017460D01*
X0117599Y0016861D02*
X0128200Y0016861D01*
X0128200Y0016263D02*
X0117227Y0016263D01*
X0116768Y0015664D02*
X0128200Y0015664D01*
X0128200Y0015066D02*
X0116211Y0015066D01*
X0115551Y0014467D02*
X0128200Y0014467D01*
X0128200Y0013869D02*
X0114729Y0013869D01*
X0113610Y0013270D02*
X0128200Y0013270D01*
X0128200Y0012672D02*
X0111799Y0012672D01*
X0110300Y0012672D02*
X0109700Y0012672D01*
X0109700Y0013270D02*
X0110300Y0013270D01*
X0110300Y0013869D02*
X0109700Y0013869D01*
X0109700Y0014467D02*
X0110300Y0014467D01*
X0110300Y0015066D02*
X0109700Y0015066D01*
X0109700Y0015664D02*
X0110300Y0015664D01*
X0110300Y0016263D02*
X0109700Y0016263D01*
X0109700Y0016861D02*
X0110300Y0016861D01*
X0110300Y0017460D02*
X0109700Y0017460D01*
X0109700Y0018058D02*
X0110300Y0018058D01*
X0110300Y0018657D02*
X0109700Y0018657D01*
X0109700Y0019255D02*
X0110300Y0019255D01*
X0110300Y0019854D02*
X0109700Y0019854D01*
X0109700Y0020452D02*
X0110300Y0020452D01*
X0110300Y0021051D02*
X0128200Y0021051D01*
X0128200Y0012073D02*
X0063053Y0012073D01*
X0062824Y0012227D02*
X0063361Y0011868D01*
X0063818Y0011411D01*
X0064177Y0010874D01*
X0064424Y0010277D01*
X0064550Y0009643D01*
X0064550Y0009600D01*
X0061550Y0009600D01*
X0060950Y0009600D01*
X0060950Y0012600D01*
X0060907Y0012600D01*
X0060273Y0012474D01*
X0059676Y0012227D01*
X0059139Y0011868D01*
X0058682Y0011411D01*
X0058323Y0010874D01*
X0058076Y0010277D01*
X0057950Y0009643D01*
X0057950Y0009600D01*
X0060950Y0009600D01*
X0060950Y0009000D01*
X0061550Y0009000D01*
X0061550Y0009600D01*
X0061550Y0012600D01*
X0061593Y0012600D01*
X0062227Y0012474D01*
X0062824Y0012227D01*
X0063754Y0011475D02*
X0128200Y0011475D01*
X0128200Y0010876D02*
X0076463Y0010876D01*
X0076227Y0010974D02*
X0075593Y0011100D01*
X0074050Y0011100D01*
X0074050Y0008100D01*
X0073450Y0008100D01*
X0073450Y0011100D01*
X0071907Y0011100D01*
X0071273Y0010974D01*
X0070676Y0010727D01*
X0070139Y0010368D01*
X0069682Y0009911D01*
X0069323Y0009374D01*
X0069076Y0008777D01*
X0068950Y0008143D01*
X0068950Y0008100D01*
X0073450Y0008100D01*
X0073450Y0007500D01*
X0074050Y0007500D01*
X0074050Y0008100D01*
X0078550Y0008100D01*
X0078550Y0008143D01*
X0078424Y0008777D01*
X0078177Y0009374D01*
X0077818Y0009911D01*
X0077361Y0010368D01*
X0076824Y0010727D01*
X0076227Y0010974D01*
X0077451Y0010278D02*
X0128200Y0010278D01*
X0128200Y0009679D02*
X0077973Y0009679D01*
X0078298Y0009081D02*
X0128200Y0009081D01*
X0128200Y0008482D02*
X0078483Y0008482D01*
X0078550Y0007500D02*
X0074050Y0007500D01*
X0074050Y0004500D01*
X0075593Y0004500D01*
X0076227Y0004626D01*
X0076824Y0004873D01*
X0077361Y0005232D01*
X0077818Y0005689D01*
X0078177Y0006226D01*
X0078424Y0006823D01*
X0078550Y0007457D01*
X0078550Y0007500D01*
X0078516Y0007285D02*
X0128200Y0007285D01*
X0128200Y0006687D02*
X0078367Y0006687D01*
X0078084Y0006088D02*
X0128200Y0006088D01*
X0128200Y0005490D02*
X0077618Y0005490D01*
X0076850Y0004891D02*
X0128200Y0004891D01*
X0128200Y0004293D02*
X0006800Y0004293D01*
X0006800Y0004891D02*
X0045650Y0004891D01*
X0045676Y0004873D02*
X0046273Y0004626D01*
X0046907Y0004500D01*
X0048450Y0004500D01*
X0048450Y0007500D01*
X0049050Y0007500D01*
X0049050Y0008100D01*
X0048450Y0008100D01*
X0048450Y0011100D01*
X0046907Y0011100D01*
X0046273Y0010974D01*
X0045676Y0010727D01*
X0045139Y0010368D01*
X0044682Y0009911D01*
X0044323Y0009374D01*
X0044076Y0008777D01*
X0043950Y0008143D01*
X0043950Y0008100D01*
X0048450Y0008100D01*
X0048450Y0007500D01*
X0043950Y0007500D01*
X0043950Y0007457D01*
X0044076Y0006823D01*
X0044323Y0006226D01*
X0044682Y0005689D01*
X0045139Y0005232D01*
X0045676Y0004873D01*
X0044882Y0005490D02*
X0031234Y0005490D01*
X0031833Y0006088D02*
X0044416Y0006088D01*
X0044133Y0006687D02*
X0032189Y0006687D01*
X0032189Y0007285D02*
X0043984Y0007285D01*
X0044017Y0008482D02*
X0040665Y0008482D01*
X0041425Y0009081D02*
X0044202Y0009081D01*
X0044527Y0009679D02*
X0042023Y0009679D01*
X0042622Y0010278D02*
X0045049Y0010278D01*
X0046037Y0010876D02*
X0043220Y0010876D01*
X0043819Y0011475D02*
X0058746Y0011475D01*
X0058325Y0010876D02*
X0051463Y0010876D01*
X0051227Y0010974D02*
X0050593Y0011100D01*
X0049050Y0011100D01*
X0049050Y0008100D01*
X0053550Y0008100D01*
X0053550Y0008143D01*
X0053424Y0008777D01*
X0053177Y0009374D01*
X0052818Y0009911D01*
X0052361Y0010368D01*
X0051824Y0010727D01*
X0051227Y0010974D01*
X0052451Y0010278D02*
X0058076Y0010278D01*
X0057957Y0009679D02*
X0052973Y0009679D01*
X0053298Y0009081D02*
X0060950Y0009081D01*
X0060950Y0009000D02*
X0057950Y0009000D01*
X0057950Y0008957D01*
X0058076Y0008323D01*
X0058323Y0007726D01*
X0058682Y0007189D01*
X0059139Y0006732D01*
X0059676Y0006373D01*
X0060273Y0006126D01*
X0060907Y0006000D01*
X0060950Y0006000D01*
X0060950Y0009000D01*
X0060950Y0008482D02*
X0061550Y0008482D01*
X0061550Y0009000D02*
X0061550Y0006000D01*
X0061593Y0006000D01*
X0062227Y0006126D01*
X0062824Y0006373D01*
X0063361Y0006732D01*
X0063818Y0007189D01*
X0064177Y0007726D01*
X0064424Y0008323D01*
X0064550Y0008957D01*
X0064550Y0009000D01*
X0061550Y0009000D01*
X0061550Y0009081D02*
X0069202Y0009081D01*
X0069017Y0008482D02*
X0064456Y0008482D01*
X0064242Y0007884D02*
X0073450Y0007884D01*
X0073450Y0007500D02*
X0068950Y0007500D01*
X0068950Y0007457D01*
X0069076Y0006823D01*
X0069323Y0006226D01*
X0069682Y0005689D01*
X0070139Y0005232D01*
X0070676Y0004873D01*
X0071273Y0004626D01*
X0071907Y0004500D01*
X0073450Y0004500D01*
X0073450Y0007500D01*
X0073450Y0007285D02*
X0074050Y0007285D01*
X0074050Y0006687D02*
X0073450Y0006687D01*
X0073450Y0006088D02*
X0074050Y0006088D01*
X0074050Y0005490D02*
X0073450Y0005490D01*
X0073450Y0004891D02*
X0074050Y0004891D01*
X0074050Y0007884D02*
X0128200Y0007884D01*
X0128200Y0003694D02*
X0006800Y0003694D01*
X0006800Y0005490D02*
X0011266Y0005490D01*
X0010667Y0006088D02*
X0006800Y0006088D01*
X0006800Y0006687D02*
X0010311Y0006687D01*
X0010311Y0007285D02*
X0006800Y0007285D01*
X0006800Y0007884D02*
X0010311Y0007884D01*
X0010311Y0008482D02*
X0006800Y0008482D01*
X0006800Y0009081D02*
X0010311Y0009081D01*
X0010311Y0009679D02*
X0006800Y0009679D01*
X0006800Y0010278D02*
X0010311Y0010278D01*
X0010311Y0010876D02*
X0006800Y0010876D01*
X0006800Y0011475D02*
X0010311Y0011475D01*
X0010311Y0012073D02*
X0006800Y0012073D01*
X0006800Y0012672D02*
X0010311Y0012672D01*
X0010311Y0013270D02*
X0006800Y0013270D01*
X0006800Y0013869D02*
X0010311Y0013869D01*
X0010311Y0014467D02*
X0006800Y0014467D01*
X0006800Y0015066D02*
X0010560Y0015066D01*
X0011158Y0015664D02*
X0006800Y0015664D01*
X0032189Y0007884D02*
X0048450Y0007884D01*
X0048450Y0008482D02*
X0049050Y0008482D01*
X0049050Y0007884D02*
X0058258Y0007884D01*
X0058044Y0008482D02*
X0053483Y0008482D01*
X0053550Y0007500D02*
X0049050Y0007500D01*
X0049050Y0004500D01*
X0050593Y0004500D01*
X0051227Y0004626D01*
X0051824Y0004873D01*
X0052361Y0005232D01*
X0052818Y0005689D01*
X0053177Y0006226D01*
X0053424Y0006823D01*
X0053550Y0007457D01*
X0053550Y0007500D01*
X0053516Y0007285D02*
X0058618Y0007285D01*
X0059207Y0006687D02*
X0053367Y0006687D01*
X0053084Y0006088D02*
X0060464Y0006088D01*
X0060950Y0006088D02*
X0061550Y0006088D01*
X0062036Y0006088D02*
X0069416Y0006088D01*
X0069133Y0006687D02*
X0063293Y0006687D01*
X0063882Y0007285D02*
X0068984Y0007285D01*
X0069882Y0005490D02*
X0052618Y0005490D01*
X0051850Y0004891D02*
X0070650Y0004891D01*
X0073450Y0008482D02*
X0074050Y0008482D01*
X0074050Y0009081D02*
X0073450Y0009081D01*
X0073450Y0009679D02*
X0074050Y0009679D01*
X0074050Y0010278D02*
X0073450Y0010278D01*
X0073450Y0010876D02*
X0074050Y0010876D01*
X0071037Y0010876D02*
X0064175Y0010876D01*
X0064424Y0010278D02*
X0070049Y0010278D01*
X0069527Y0009679D02*
X0064543Y0009679D01*
X0061550Y0009679D02*
X0060950Y0009679D01*
X0060950Y0010278D02*
X0061550Y0010278D01*
X0061550Y0010876D02*
X0060950Y0010876D01*
X0060950Y0011475D02*
X0061550Y0011475D01*
X0061550Y0012073D02*
X0060950Y0012073D01*
X0059447Y0012073D02*
X0044417Y0012073D01*
X0045016Y0012672D02*
X0108201Y0012672D01*
X0106390Y0013270D02*
X0045614Y0013270D01*
X0046213Y0013869D02*
X0105271Y0013869D01*
X0104449Y0014467D02*
X0046811Y0014467D01*
X0047410Y0015066D02*
X0103789Y0015066D01*
X0101437Y0019255D02*
X0086349Y0019255D01*
X0086948Y0019854D02*
X0101314Y0019854D01*
X0101236Y0020452D02*
X0087546Y0020452D01*
X0061550Y0007884D02*
X0060950Y0007884D01*
X0060950Y0007285D02*
X0061550Y0007285D01*
X0061550Y0006687D02*
X0060950Y0006687D01*
X0056269Y0015664D02*
X0048008Y0015664D01*
X0048607Y0016263D02*
X0048897Y0016263D01*
X0049050Y0010876D02*
X0048450Y0010876D01*
X0048450Y0010278D02*
X0049050Y0010278D01*
X0049050Y0009679D02*
X0048450Y0009679D01*
X0048450Y0009081D02*
X0049050Y0009081D01*
X0049050Y0007285D02*
X0048450Y0007285D01*
X0048450Y0006687D02*
X0049050Y0006687D01*
X0049050Y0006088D02*
X0048450Y0006088D01*
X0048450Y0005490D02*
X0049050Y0005490D01*
X0049050Y0004891D02*
X0048450Y0004891D01*
X0056100Y0033620D02*
X0037400Y0033620D01*
X0037400Y0034218D02*
X0056100Y0034218D01*
X0066195Y0044393D02*
X0068328Y0044393D01*
X0067746Y0044991D02*
X0066195Y0044991D01*
X0066195Y0045590D02*
X0067499Y0045590D01*
X0067350Y0046188D02*
X0066195Y0046188D01*
X0066195Y0046787D02*
X0067350Y0046787D01*
X0067488Y0047385D02*
X0066195Y0047385D01*
X0066195Y0047984D02*
X0067736Y0047984D01*
X0068303Y0048582D02*
X0066195Y0048582D01*
X0024870Y0098259D02*
X0128200Y0098259D01*
D26*
X0041500Y0061300D02*
X0041500Y0049131D01*
D27*
X0030000Y0080050D02*
X0030000Y0091300D01*
X0027205Y0094095D01*
X0020000Y0094095D01*
D28*
X0041500Y0072560D02*
X0041500Y0066300D01*
X0041500Y0072560D02*
X0047776Y0072560D01*
D29*
X0033750Y0073505D02*
X0020000Y0073505D01*
X0033750Y0073505D02*
X0033750Y0056418D01*
X0023110Y0056418D01*
M02*
